<svg width="252" height="150" viewBox="0 0 252 150" fill="none" xmlns="http://www.w3.org/2000/svg">
<rect opacity="0.12" width="252" height="150" fill="#677A9E"/>
<circle opacity="0.8" cx="126" cy="75" r="35" fill="white"/>
<path d="M126 95C137.046 95 146 86.0457 146 75C146 63.9543 137.046 55 126 55C114.954 55 106 63.9543 106 75C106 86.0457 114.954 95 126 95Z" fill="#87EC00"/>
<path d="M126 92.3913C135.605 92.3913 143.391 84.605 143.391 75C143.391 65.395 135.605 57.6087 126 57.6087C116.395 57.6087 108.609 65.395 108.609 75C108.609 84.605 116.395 92.3913 126 92.3913Z" fill="#152600"/>
<path d="M119.078 69.0174H114.852C114.73 69.0174 114.626 68.8957 114.626 68.7913L114.852 66.7391C114.852 66.6174 114.974 66.513 115.078 66.513H125.339C125.461 66.513 125.461 66.513 125.565 66.6348C125.565 66.6348 125.565 66.6348 125.565 66.7565L125.791 68.8087C125.791 68.9304 125.791 68.9304 125.669 69.0348H121.704V83.2957C121.704 83.4174 121.582 83.5217 121.478 83.5217H119.2C119.078 83.5217 118.974 83.4 118.974 83.2957L119.078 69.0174ZM130.139 76.6522L133.913 71.5217C133.913 71.4 134.035 71.4 134.139 71.4H136.643C136.869 71.4 136.869 71.5217 136.765 71.6261C136.191 72.4261 133.443 75.7304 132.539 76.7739V77L137.322 83.2783C137.443 83.4 137.322 83.5044 137.2 83.5044H134.348C134.226 83.5044 134.122 83.3826 134.122 83.2783C133.322 82.2522 131.269 79.2783 130.243 77.9044V83.2783C130.243 83.4 130.243 83.4 130.122 83.5044H127.722C127.6 83.5044 127.6 83.5044 127.496 83.3826C127.496 83.3826 127.496 83.3826 127.496 83.2609V66.7391C127.496 66.6174 127.496 66.6174 127.617 66.513H130.017C130.139 66.513 130.243 66.6348 130.243 66.7391L130.139 76.6522Z" fill="#87EC00"/>
</svg>
