<svg width="252" height="150" viewBox="0 0 252 150" fill="none" xmlns="http://www.w3.org/2000/svg">
<path opacity="0.4" d="M0 0H252V150H0V0Z" fill="#677A9E"/>
<rect opacity="0.15" width="252" height="150" fill="#677A9E"/>
<path d="M86 84H46V88H86V84Z" fill="white"/>
<path d="M56 111H46V115H56V111Z" fill="white"/>
<path d="M106 94H46V97H106V94Z" fill="white"/>
<path d="M86 100H46V103H86V100Z" fill="white"/>
<rect opacity="0.3" x="46" y="48" width="26" height="26" rx="6" fill="#677A9E"/>
<mask id="mask0" mask-type="alpha" maskUnits="userSpaceOnUse" x="46" y="48" width="26" height="26">
<rect opacity="0.3" x="46" y="48" width="26" height="26" rx="6" fill="#677A9E"/>
</mask>
<g mask="url(#mask0)">
<path d="M48 58.1667C48 56.3571 49.3478 55 51.1449 55C52.942 55 54.2899 56.3571 54.2899 58.1667C54.2899 59.9762 52.942 61.3333 51.1449 61.3333C49.3478 61.3333 48 59.9762 48 58.1667ZM67.0942 58.1667L61.9275 66.3095L57.8841 61.3333L48 74H79L67.0942 58.1667Z" fill="#677A9E"/>
</g>
<rect opacity="0.25" x="242" width="10" height="50" fill="#677A9E"/>
<rect opacity="0.15" x="242" y="50" width="10" height="50" fill="#677A9E"/>
<rect opacity="0.05" x="242" y="100" width="10" height="50" fill="#677A9E"/>
<rect x="246" y="22" width="2" height="5.88235" fill="white"/>
<rect opacity="0.5" x="246" y="72" width="2" height="5.88235" fill="white"/>
<rect opacity="0.5" x="246" y="122" width="2" height="5.88235" fill="white"/>
<rect x="9" y="16.3636" width="18" height="3.27273" fill="white"/>
<rect x="87" y="17" width="12" height="2" fill="white"/>
<rect x="105" y="17" width="12" height="2" fill="white"/>
<rect x="123" y="17" width="12" height="2" fill="white"/>
<rect x="141" y="17" width="12" height="2" fill="white"/>
<rect x="159" y="17" width="12" height="2" fill="white"/>
<rect x="177" y="17" width="12" height="2" fill="white"/>
<rect x="215" y="17.1818" width="6" height="1.63636" fill="white"/>
<rect x="227" y="17.1818" width="6" height="1.63636" fill="white"/>
</svg>
