<svg width="252" height="150" viewBox="0 0 252 150" fill="none" xmlns="http://www.w3.org/2000/svg">
<rect opacity="0.12" width="252" height="150" fill="#677A9E"/>
<path d="M92.0725 69.044C92.0725 73.904 95.5285 77.36 100.136 77.36C103.592 77.36 105.14 75.74 105.824 74.696H106.256V77.792C106.256 80.96 104.348 82.76 101.072 82.76C98.0125 82.76 96.5005 80.96 96.5005 78.548H92.2885C92.2885 83.372 95.7805 86.468 101.072 86.468C106.508 86.468 110.396 83.3 110.396 77.504V68.72C110.396 63.716 106.508 60.224 101.288 60.296C95.9605 60.368 92.0725 63.824 92.0725 69.044ZM101.252 74.084C98.2645 74.084 96.2125 72.104 96.2125 69.044C96.2125 65.984 98.3005 64.004 101.252 64.004C104.168 64.004 106.256 65.912 106.256 69.044C106.256 72.104 104.204 74.084 101.252 74.084ZM112.744 69.044C112.744 73.904 116.2 77.36 120.808 77.36C124.264 77.36 125.812 75.74 126.496 74.696H126.928V77.792C126.928 80.96 125.02 82.76 121.744 82.76C118.684 82.76 117.172 80.96 117.172 78.548H112.96C112.96 83.372 116.452 86.468 121.744 86.468C127.18 86.468 131.068 83.3 131.068 77.504V68.72C131.068 63.716 127.18 60.224 121.96 60.296C116.632 60.368 112.744 63.824 112.744 69.044ZM121.924 74.084C118.936 74.084 116.884 72.104 116.884 69.044C116.884 65.984 118.972 64.004 121.924 64.004C124.84 64.004 126.928 65.912 126.928 69.044C126.928 72.104 124.876 74.084 121.924 74.084ZM147.492 69.404L149.58 70.952L156.816 62.672L153.576 60.26L147.492 69.404ZM133.884 66.056V66.74C133.884 70.268 136.08 72.392 139.752 72.392C143.46 72.392 145.62 70.268 145.62 66.74V66.056C145.62 62.528 143.352 60.368 139.752 60.368C136.08 60.368 133.884 62.528 133.884 66.056ZM137.196 65.876C137.196 64.184 138.06 63.104 139.752 63.104C141.444 63.104 142.308 64.184 142.308 65.876V66.884C142.308 68.576 141.444 69.656 139.752 69.656C138.06 69.656 137.196 68.576 137.196 66.884V65.876ZM146.7 80.096V80.78C146.7 84.308 148.896 86.432 152.604 86.432C156.276 86.432 158.472 84.308 158.472 80.78V80.096C158.472 76.568 156.168 74.408 152.604 74.408C148.896 74.408 146.7 76.568 146.7 80.096ZM144.72 77.324L142.632 75.776L135.396 84.056L138.636 86.504L144.72 77.324ZM150.048 79.916C150.048 78.224 150.912 77.144 152.604 77.144C154.296 77.144 155.16 78.224 155.16 79.916V80.924C155.16 82.616 154.296 83.696 152.604 83.696C150.912 83.696 150.048 82.616 150.048 80.924V79.916Z" fill="#677A9E"/>
</svg>
