<svg width="252" height="150" viewBox="0 0 252 150" fill="none" xmlns="http://www.w3.org/2000/svg">
<rect opacity="0.4" width="252" height="150" fill="#677A9E"/>
<rect x="117" y="133" width="6" height="2" fill="white"/>
<rect x="117" y="129" width="17" height="2" fill="white"/>
<rect x="117" y="125" width="17" height="2" fill="white"/>
<rect x="128" y="133" width="6" height="2" fill="white"/>
<rect x="70" y="133" width="6" height="2" fill="white"/>
<rect x="70" y="129" width="17" height="2" fill="white"/>
<rect x="70" y="125" width="17" height="2" fill="white"/>
<rect x="81" y="133" width="6" height="2" fill="white"/>
<rect x="164" y="133" width="6" height="2" fill="white"/>
<rect x="164" y="129" width="17" height="2" fill="white"/>
<rect x="164" y="125" width="17" height="2" fill="white"/>
<rect x="175" y="133" width="6" height="2" fill="white"/>
<rect x="110" y="57" width="32" height="3" fill="white"/>
<rect x="106" y="65" width="40" height="3" fill="white"/>
<rect x="106" y="73" width="40" height="3" fill="white"/>
<rect x="110" y="81" width="32" height="3" fill="white"/>
<rect x="113" y="89" width="26" height="3" fill="white"/>
<circle opacity="0.3" cx="21" cy="21" r="6" fill="white"/>
<path d="M23.0884 19.4884L23.1768 19.4L23.0884 19.3116L22.6884 18.9116L22.6 18.8232L22.5116 18.9116L21 20.4233L19.4884 18.9116L19.4 18.8232L19.3116 18.9116L18.9116 19.3116L18.8232 19.4L18.9116 19.4884L20.4233 21L18.9116 22.5116L18.8232 22.6L18.9116 22.6884L19.3116 23.0884L19.4 23.1768L19.4884 23.0884L21 21.5768L22.5116 23.0884L22.6 23.1768L22.6884 23.0884L23.0884 22.6884L23.1768 22.6L23.0884 22.5116L21.5768 21L23.0884 19.4884Z" fill="white" stroke="white" stroke-width="0.25"/>
</svg>
