<svg width="252" height="150" viewBox="0 0 252 150" fill="none" xmlns="http://www.w3.org/2000/svg">
<path opacity="0.4" d="M0 0H252V150H0V0Z" fill="#677A9E"/>
<rect opacity="0.15" width="252" height="79" fill="#677A9E"/>
<rect opacity="0.3" x="113" y="27" width="26" height="26" rx="6" fill="#677A9E"/>
<mask id="mask0_103_1065" style="mask-type:alpha" maskUnits="userSpaceOnUse" x="113" y="27" width="26" height="26">
<rect opacity="0.3" x="113" y="27" width="26" height="26" rx="6" fill="#677A9E"/>
</mask>
<g mask="url(#mask0_103_1065)">
<path d="M115 37.1667C115 35.3571 116.348 34 118.145 34C119.942 34 121.29 35.3571 121.29 37.1667C121.29 38.9762 119.942 40.3333 118.145 40.3333C116.348 40.3333 115 38.9762 115 37.1667ZM134.094 37.1667L128.928 45.3095L124.884 40.3333L115 53H146L134.094 37.1667Z" fill="#677A9E"/>
</g>
<rect x="14" y="16.3636" width="18" height="3.27273" fill="white"/>
<rect x="97" y="17" width="12" height="2" fill="white"/>
<rect x="115" y="17" width="12" height="2" fill="white"/>
<rect x="133" y="17" width="12" height="2" fill="white"/>
<rect x="151" y="17" width="12" height="2" fill="white"/>
<rect x="169" y="17" width="12" height="2" fill="white"/>
<rect x="187" y="17" width="12" height="2" fill="white"/>
<rect x="220" y="17.1818" width="6" height="1.63636" fill="white"/>
<rect x="232" y="17.1818" width="6" height="1.63636" fill="white"/>
<rect x="83" y="90" width="50" height="4" fill="white"/>
<path d="M83 100H183V103H83V100Z" fill="white"/>
<path d="M83 121H183V124H83V121Z" fill="white"/>
<path d="M83 107H183V110H83V107Z" fill="white"/>
<path d="M83 128H183V131H83V128Z" fill="white"/>
<path d="M83 114H133V117H83V114Z" fill="white"/>
<path d="M83 135H133V138H83V135Z" fill="white"/>
</svg>
