<svg width="252" height="150" viewBox="0 0 252 150" fill="none" xmlns="http://www.w3.org/2000/svg">
<path opacity="0.12" d="M0 0H252V150H0V0Z" fill="#677A9E"/>
<circle cx="126" cy="75" r="35" fill="white"/>
<circle cx="126" cy="75" r="19.15" stroke="#677A9E" stroke-width="1.7"/>
<path d="M136.15 75C136.15 80.4076 134.943 85.2611 133.033 88.7325C131.107 92.2345 128.584 94.15 126 94.15C123.416 94.15 120.893 92.2345 118.967 88.7325C117.057 85.2611 115.85 80.4076 115.85 75C115.85 69.5924 117.057 64.7389 118.967 61.2675C120.893 57.7655 123.416 55.85 126 55.85C128.584 55.85 131.107 57.7655 133.033 61.2675C134.943 64.7389 136.15 69.5924 136.15 75Z" stroke="#677A9E" stroke-width="1.7"/>
<path d="M108.5 67H143.5" stroke="#677A9E" stroke-width="1.7"/>
<path d="M107.5 75H144.5" stroke="#677A9E" stroke-width="1.7"/>
<path d="M108.5 83H143.5" stroke="#677A9E" stroke-width="1.7"/>
<path d="M126 56V94.5" stroke="#677A9E" stroke-width="1.7"/>
</svg>
