<svg width="252" height="150" viewBox="0 0 252 150" fill="none" xmlns="http://www.w3.org/2000/svg">
<path opacity="0.4" d="M0 0H252V150H0V0Z" fill="#677A9E"/>
<rect opacity="0.15" width="252" height="150" fill="#677A9E"/>
<rect opacity="0.15" x="86" y="36" width="166" height="114" rx="1" fill="#677A9E"/>
<path d="M86 93H46V97H86V93Z" fill="white"/>
<path d="M56 120H46V124H56V120Z" fill="white"/>
<path d="M106 103H46V106H106V103Z" fill="white"/>
<path d="M86 109H46V112H86V109Z" fill="white"/>
<rect opacity="0.3" x="46" y="57" width="26" height="26" rx="6" fill="#677A9E"/>
<mask id="mask0" mask-type="alpha" maskUnits="userSpaceOnUse" x="46" y="57" width="26" height="26">
<rect opacity="0.3" x="46" y="57" width="26" height="26" rx="6" fill="#677A9E"/>
</mask>
<g mask="url(#mask0)">
<path d="M48 67.1667C48 65.3571 49.3478 64 51.1449 64C52.942 64 54.2899 65.3571 54.2899 67.1667C54.2899 68.9762 52.942 70.3333 51.1449 70.3333C49.3478 70.3333 48 68.9762 48 67.1667ZM67.0942 67.1667L61.9275 75.3095L57.8841 70.3333L48 83H79L67.0942 67.1667Z" fill="#677A9E"/>
</g>
<rect opacity="0.25" x="242" y="36" width="10" height="38" fill="#677A9E"/>
<rect opacity="0.15" x="242" y="74" width="10" height="38" fill="#677A9E"/>
<rect opacity="0.05" x="242" y="112" width="10" height="38" fill="#677A9E"/>
<rect x="246" y="52.72" width="2" height="4.47059" fill="white"/>
<rect opacity="0.5" x="246" y="90.72" width="2" height="4.47059" fill="white"/>
<rect opacity="0.5" x="246" y="128.72" width="2" height="4.47059" fill="white"/>
<rect x="14" y="16.3636" width="18" height="3.27273" fill="white"/>
<rect x="97" y="17" width="12" height="2" fill="white"/>
<rect x="115" y="17" width="12" height="2" fill="white"/>
<rect x="133" y="17" width="12" height="2" fill="white"/>
<rect x="151" y="17" width="12" height="2" fill="white"/>
<rect x="169" y="17" width="12" height="2" fill="white"/>
<rect x="187" y="17" width="12" height="2" fill="white"/>
<rect x="220" y="17.1818" width="6" height="1.63636" fill="white"/>
<rect x="232" y="17.1818" width="6" height="1.63636" fill="white"/>
</svg>
