<svg width="252" height="150" viewBox="0 0 252 150" fill="none" xmlns="http://www.w3.org/2000/svg">
<path opacity="0.12" d="M0 0H252V150H0V0Z" fill="#677A9E"/>
<circle cx="126" cy="75" r="35" fill="white"/>
<path fill-rule="evenodd" clip-rule="evenodd" d="M125.153 70.5549L120.987 75.4913L119.758 74.4006L125.987 67.0556L132.242 74.4425L130.987 75.5139L126.82 70.5581V83.1667H125.153V70.5549ZM136.833 86.3889H115.167C111.032 86.3889 107.667 83.1377 107.667 79.1389C107.667 75.6299 110.258 72.6332 113.83 72.0113L115.128 71.7858L115.2 70.5146C115.508 64.9595 120.252 60.6111 126 60.6111C131.748 60.6111 136.492 64.9595 136.797 70.5146L136.87 71.7858L138.17 72.0113C141.74 72.6332 144.333 75.6299 144.333 79.1389C144.333 83.1377 140.968 86.3889 136.833 86.3889V86.3889ZM138.463 70.426C138.11 64.0605 132.677 59 126 59C119.323 59 113.888 64.0605 113.535 70.426C109.252 71.1719 106 74.7857 106 79.1389C106 84.0318 110.105 88 115.167 88H136.833C141.895 88 146 84.0318 146 79.1389C146 74.7857 142.748 71.1719 138.463 70.426" fill="#677A9E"/>
</svg>
