<svg width="252" height="150" viewBox="0 0 252 150" fill="none" xmlns="http://www.w3.org/2000/svg">
<rect opacity="0.12" width="252" height="150" fill="#677A9E"/>
<circle opacity="0.8" cx="126" cy="75" r="35" fill="white"/>
<path d="M107 88.9995L124.883 61.0001H135.983V64.8957L120.567 88.9995" fill="#FBBC04"/>
<path d="M135.983 88.9994H124.883V61H135.983V88.9994Z" fill="#1A73E8"/>
<path d="M144 81.0872C144 85.4576 140.411 89.0001 135.983 89.0001V73.1744C140.411 73.1744 144 76.7169 144 81.0872Z" fill="#34A853"/>
<path d="M135.983 89.0001C131.555 89.0001 127.966 85.4576 127.966 81.0872C127.966 76.7169 131.555 73.1744 135.983 73.1744V89.0001Z" fill="#0D652D"/>
<path d="M142.15 67.0868C142.15 70.448 139.39 73.1737 135.983 73.1737V61C139.39 61 142.15 63.7257 142.15 67.0868Z" fill="#1A73E8"/>
<path d="M135.984 73.1737C132.577 73.1737 129.817 70.448 129.817 67.0868C129.817 63.7257 132.577 61 135.984 61V73.1737Z" fill="#174EA6"/>
<path d="M107.617 66.4781C107.617 63.453 110.102 61 113.167 61C116.231 61 118.717 63.453 118.717 66.4781C118.717 69.5033 116.231 71.9563 113.167 71.9563C110.102 71.9563 107.617 69.5033 107.617 66.4781Z" fill="#EA4335"/>
</svg>
