<svg width="252" height="150" viewBox="0 0 252 150" fill="none" xmlns="http://www.w3.org/2000/svg">
<g clip-path="url(#clip0_1_34)">
<rect opacity="0.4" width="252" height="150" fill="#677A9E"/>
<rect opacity="0.15" x="118" y="36" width="86" height="86" fill="#677A9E"/>
<rect opacity="0.3" x="148" y="66" width="26" height="26" rx="6" fill="#677A9E"/>
<mask id="mask0_1_34" style="mask-type:alpha" maskUnits="userSpaceOnUse" x="148" y="66" width="26" height="26">
<rect opacity="0.3" x="148" y="66" width="26" height="26" rx="6" fill="#677A9E"/>
</mask>
<g mask="url(#mask0_1_34)">
<path d="M150 76.1667C150 74.3571 151.348 73 153.145 73C154.942 73 156.29 74.3571 156.29 76.1667C156.29 77.9762 154.942 79.3333 153.145 79.3333C151.348 79.3333 150 77.9762 150 76.1667ZM169.094 76.1667L163.928 84.3095L159.884 79.3333L150 92H181L169.094 76.1667Z" fill="#677A9E"/>
</g>
<rect opacity="0.15" x="118" y="126" width="86" height="86" fill="#677A9E"/>
<rect opacity="0.15" x="208" y="36" width="14" height="14" fill="#677A9E"/>
<rect opacity="0.15" x="208" y="54" width="14" height="14" fill="#677A9E"/>
<rect opacity="0.15" x="208" y="72" width="14" height="14" fill="#677A9E"/>
<rect opacity="0.15" x="208" y="90" width="14" height="14" fill="#677A9E"/>
<rect opacity="0.15" x="208" y="108" width="14" height="14" fill="#677A9E"/>
<path d="M70 66H30V70H70V66Z" fill="white"/>
<path d="M40 93H30V97H40V93Z" fill="white"/>
<path d="M90 76H30V79H90V76Z" fill="white"/>
<path d="M70 82H30V85H70V82Z" fill="white"/>
<rect x="14" y="16.3636" width="18" height="3.27273" fill="white"/>
<rect x="97" y="17" width="12" height="2" fill="white"/>
<rect x="115" y="17" width="12" height="2" fill="white"/>
<rect x="133" y="17" width="12" height="2" fill="white"/>
<rect x="151" y="17" width="12" height="2" fill="white"/>
<rect x="169" y="17" width="12" height="2" fill="white"/>
<rect x="187" y="17" width="12" height="2" fill="white"/>
<rect x="220" y="17.1818" width="6" height="1.63636" fill="white"/>
<rect x="232" y="17.1818" width="6" height="1.63636" fill="white"/>
</g>
<defs>
<clipPath id="clip0_1_34">
<rect width="252" height="150" fill="white"/>
</clipPath>
</defs>
</svg>
