<svg width="252" height="150" viewBox="0 0 252 150" fill="none" xmlns="http://www.w3.org/2000/svg">
<path opacity="0.4" d="M0 0H252V150H0V0Z" fill="#677A9E"/>
<rect opacity="0.15" x="36" width="90" height="150" fill="#677A9E"/>
<rect opacity="0.15" y="58" width="9" height="40" fill="#677A9E"/>
<rect opacity="0.25" x="242" width="10" height="50" fill="#677A9E"/>
<rect opacity="0.15" x="242" y="50" width="10" height="50" fill="#677A9E"/>
<rect opacity="0.05" x="242" y="100" width="10" height="50" fill="#677A9E"/>
<rect x="246" y="22" width="2" height="5.88235" fill="white"/>
<rect opacity="0.5" x="246" y="72" width="2" height="5.88235" fill="white"/>
<rect opacity="0.5" x="246" y="122" width="2" height="5.88235" fill="white"/>
<circle opacity="0.3" cx="225" cy="133" r="7" fill="white"/>
<path d="M224 131L226 133L224 135" stroke="white" stroke-width="1.25"/>
<circle opacity="0.3" cx="207" cy="133" r="7" transform="rotate(180 207 133)" fill="white"/>
<path d="M208 135L206 133L208 131" stroke="white" stroke-width="1.25"/>
<path d="M186 99H146V103H186V99Z" fill="white"/>
<path d="M156 126H146V130H156V126Z" fill="white"/>
<path d="M206 109H146V112H206V109Z" fill="white"/>
<path d="M186 115H146V118H186V115Z" fill="white"/>
<rect x="9" y="16.3636" width="18" height="3.27273" fill="white"/>
<rect x="87" y="17" width="12" height="2" fill="white"/>
<rect x="105" y="17" width="12" height="2" fill="white"/>
<rect x="123" y="17" width="12" height="2" fill="white"/>
<rect x="141" y="17" width="12" height="2" fill="white"/>
<rect x="159" y="17" width="12" height="2" fill="white"/>
<rect x="177" y="17" width="12" height="2" fill="white"/>
<rect x="215" y="17.1818" width="6" height="1.63636" fill="white"/>
<rect x="227" y="17.1818" width="6" height="1.63636" fill="white"/>
</svg>
