<svg width="60" height="60" viewBox="0 0 60 60" fill="none" xmlns="http://www.w3.org/2000/svg">
<path opacity="0.15" d="M6 10C6 7.79086 7.79086 6 10 6H50C52.2091 6 54 7.79086 54 10V50C54 52.2091 52.2091 54 50 54H10C7.79086 54 6 52.2091 6 50V10Z" fill="#586A74"/>
<path d="M17 15.6667C17 14.1429 18.1304 13 19.6377 13C21.1449 13 22.2754 14.1429 22.2754 15.6667C22.2754 17.1905 21.1449 18.3333 19.6377 18.3333C18.1304 18.3333 17 17.1905 17 15.6667ZM33.0145 15.6667L28.6812 22.5238L25.2899 18.3333L17 29H43L33.0145 15.6667Z" fill="#586A74"/>
<rect opacity="0.6" x="17" y="47" width="26" height="2" fill="#586A74"/>
<rect x="17" y="41" width="16" height="3" fill="#586A74"/>
</svg>
