<svg width="60" height="60" viewBox="0 0 60 60" fill="none" xmlns="http://www.w3.org/2000/svg">
<path opacity="0.15" d="M6 10C6 7.79086 7.79086 6 10 6H50C52.2091 6 54 7.79086 54 10V50C54 52.2091 52.2091 54 50 54H10C7.79086 54 6 52.2091 6 50V10Z" fill="#586A74"/>
<path d="M17 24.6667C17 23.1429 18.1304 22 19.6377 22C21.1449 22 22.2754 23.1429 22.2754 24.6667C22.2754 26.1905 21.1449 27.3333 19.6377 27.3333C18.1304 27.3333 17 26.1905 17 24.6667ZM33.0145 24.6667L28.6812 31.5238L25.2899 27.3333L17 38H43L33.0145 24.6667Z" fill="#586A74"/>
</svg>
