<svg width="252" height="150" viewBox="0 0 252 150" fill="none" xmlns="http://www.w3.org/2000/svg">
<g clip-path="url(#clip0)">
<rect opacity="0.15" width="252" height="150" rx="1" fill="#677A9E"/>
<rect opacity="0.5" x="15" y="16" width="18" height="4" fill="#677A9E"/>
<g opacity="0.5">
<rect x="74" y="17" width="12" height="2" fill="#677A9E"/>
<rect x="92" y="17" width="12" height="2" fill="#677A9E"/>
<rect x="110" y="17" width="12" height="2" fill="#677A9E"/>
<rect x="128" y="17" width="12" height="2" fill="#677A9E"/>
<rect x="146" y="17" width="12" height="2" fill="#677A9E"/>
<rect x="164" y="17" width="12" height="2" fill="#677A9E"/>
</g>
<g opacity="0.5">
<rect x="219" y="17" width="6" height="2" fill="#677A9E"/>
<rect x="231" y="17" width="6" height="2" fill="#677A9E"/>
</g>
<rect opacity="0.15" x="35" y="40" width="54" height="54" rx="1" fill="#677A9E"/>
<rect opacity="0.6" x="45" y="82" width="24" height="2" fill="#677A9E"/>
<rect opacity="0.8" x="45" y="71" width="34" height="3" fill="#677A9E"/>
<rect opacity="0.6" x="45" y="77" width="24" height="2" fill="#677A9E"/>
<rect opacity="0.15" x="99" y="40" width="54" height="54" rx="1" fill="#677A9E"/>
<rect opacity="0.6" x="109" y="82" width="24" height="2" fill="#677A9E"/>
<rect opacity="0.8" x="109" y="71" width="34" height="3" fill="#677A9E"/>
<rect opacity="0.6" x="109" y="77" width="24" height="2" fill="#677A9E"/>
<rect opacity="0.15" x="163" y="40" width="54" height="54" rx="1" fill="#677A9E"/>
<rect opacity="0.6" x="173" y="82" width="24" height="2" fill="#677A9E"/>
<rect opacity="0.8" x="173" y="71" width="34" height="3" fill="#677A9E"/>
<rect opacity="0.6" x="173" y="77" width="24" height="2" fill="#677A9E"/>
<rect opacity="0.15" x="35" y="104" width="54" height="54" rx="1" fill="#677A9E"/>
<rect opacity="0.6" x="45" y="146" width="24" height="2" fill="#677A9E"/>
<rect opacity="0.8" x="45" y="135" width="34" height="3" fill="#677A9E"/>
<rect opacity="0.6" x="45" y="141" width="24" height="2" fill="#677A9E"/>
<rect opacity="0.15" x="99" y="104" width="54" height="54" rx="1" fill="#677A9E"/>
<rect opacity="0.6" x="109" y="146" width="24" height="2" fill="#677A9E"/>
<rect opacity="0.8" x="109" y="135" width="34" height="3" fill="#677A9E"/>
<rect opacity="0.6" x="109" y="141" width="24" height="2" fill="#677A9E"/>
<rect opacity="0.15" x="163" y="104" width="54" height="54" rx="1" fill="#677A9E"/>
<rect opacity="0.6" x="173" y="146" width="24" height="2" fill="#677A9E"/>
<rect opacity="0.8" x="173" y="135" width="34" height="3" fill="#677A9E"/>
<rect opacity="0.6" x="173" y="141" width="24" height="2" fill="#677A9E"/>
</g>
<defs>
<clipPath id="clip0">
<rect width="252" height="150" fill="white"/>
</clipPath>
</defs>
</svg>
