<svg width="252" height="150" viewBox="0 0 252 150" fill="none" xmlns="http://www.w3.org/2000/svg">
<g clip-path="url(#clip0)">
<rect opacity="0.15" width="252" height="150" rx="1" fill="#677A9E"/>
<rect opacity="0.15" x="35" y="40" width="54" height="54" rx="1" fill="#677A9E"/>
<rect opacity="0.3" x="49" y="54" width="26" height="26" rx="6" fill="#677A9E"/>
<mask id="mask0" mask-type="alpha" maskUnits="userSpaceOnUse" x="49" y="54" width="26" height="26">
<rect opacity="0.3" x="49" y="54" width="26" height="26" rx="6" fill="#677A9E"/>
</mask>
<g mask="url(#mask0)">
<path d="M51 64.1667C51 62.3571 52.3478 61 54.1449 61C55.942 61 57.2899 62.3571 57.2899 64.1667C57.2899 65.9762 55.942 67.3333 54.1449 67.3333C52.3478 67.3333 51 65.9762 51 64.1667ZM70.0942 64.1667L64.9275 72.3095L60.8841 67.3333L51 80H82L70.0942 64.1667Z" fill="#677A9E"/>
</g>
<rect opacity="0.15" x="99" y="40" width="54" height="54" rx="1" fill="#677A9E"/>
<rect opacity="0.3" x="113" y="54" width="26" height="26" rx="6" fill="#677A9E"/>
<mask id="mask1" mask-type="alpha" maskUnits="userSpaceOnUse" x="113" y="54" width="26" height="26">
<rect opacity="0.3" x="113" y="54" width="26" height="26" rx="6" fill="#677A9E"/>
</mask>
<g mask="url(#mask1)">
<path d="M115 64.1667C115 62.3571 116.348 61 118.145 61C119.942 61 121.29 62.3571 121.29 64.1667C121.29 65.9762 119.942 67.3333 118.145 67.3333C116.348 67.3333 115 65.9762 115 64.1667ZM134.094 64.1667L128.928 72.3095L124.884 67.3333L115 80H146L134.094 64.1667Z" fill="#677A9E"/>
</g>
<rect opacity="0.15" x="163" y="40" width="54" height="54" rx="1" fill="#677A9E"/>
<rect opacity="0.3" x="177" y="54" width="26" height="26" rx="6" fill="#677A9E"/>
<mask id="mask2" mask-type="alpha" maskUnits="userSpaceOnUse" x="177" y="54" width="26" height="26">
<rect opacity="0.3" x="177" y="54" width="26" height="26" rx="6" fill="#677A9E"/>
</mask>
<g mask="url(#mask2)">
<path d="M179 64.1667C179 62.3571 180.348 61 182.145 61C183.942 61 185.29 62.3571 185.29 64.1667C185.29 65.9762 183.942 67.3333 182.145 67.3333C180.348 67.3333 179 65.9762 179 64.1667ZM198.094 64.1667L192.928 72.3095L188.884 67.3333L179 80H210L198.094 64.1667Z" fill="#677A9E"/>
</g>
<rect opacity="0.15" x="35" y="104" width="54" height="54" rx="1" fill="#677A9E"/>
<rect opacity="0.3" x="49" y="118" width="26" height="26" rx="6" fill="#677A9E"/>
<mask id="mask3" mask-type="alpha" maskUnits="userSpaceOnUse" x="49" y="118" width="26" height="26">
<rect opacity="0.3" x="49" y="118" width="26" height="26" rx="6" fill="#677A9E"/>
</mask>
<g mask="url(#mask3)">
<path d="M51 128.167C51 126.357 52.3478 125 54.1449 125C55.942 125 57.2899 126.357 57.2899 128.167C57.2899 129.976 55.942 131.333 54.1449 131.333C52.3478 131.333 51 129.976 51 128.167ZM70.0942 128.167L64.9275 136.31L60.8841 131.333L51 144H82L70.0942 128.167Z" fill="#677A9E"/>
</g>
<rect opacity="0.15" x="99" y="104" width="54" height="54" rx="1" fill="#677A9E"/>
<rect opacity="0.3" x="113" y="118" width="26" height="26" rx="6" fill="#677A9E"/>
<mask id="mask4" mask-type="alpha" maskUnits="userSpaceOnUse" x="113" y="118" width="26" height="26">
<rect opacity="0.3" x="113" y="118" width="26" height="26" rx="6" fill="#677A9E"/>
</mask>
<g mask="url(#mask4)">
<path d="M115 128.167C115 126.357 116.348 125 118.145 125C119.942 125 121.29 126.357 121.29 128.167C121.29 129.976 119.942 131.333 118.145 131.333C116.348 131.333 115 129.976 115 128.167ZM134.094 128.167L128.928 136.31L124.884 131.333L115 144H146L134.094 128.167Z" fill="#677A9E"/>
</g>
<rect opacity="0.15" x="163" y="104" width="54" height="54" rx="1" fill="#677A9E"/>
<rect opacity="0.3" x="177" y="118" width="26" height="26" rx="6" fill="#677A9E"/>
<mask id="mask5" mask-type="alpha" maskUnits="userSpaceOnUse" x="177" y="118" width="26" height="26">
<rect opacity="0.3" x="177" y="118" width="26" height="26" rx="6" fill="#677A9E"/>
</mask>
<g mask="url(#mask5)">
<path d="M179 128.167C179 126.357 180.348 125 182.145 125C183.942 125 185.29 126.357 185.29 128.167C185.29 129.976 183.942 131.333 182.145 131.333C180.348 131.333 179 129.976 179 128.167ZM198.094 128.167L192.928 136.31L188.884 131.333L179 144H210L198.094 128.167Z" fill="#677A9E"/>
</g>
<rect opacity="0.5" x="15" y="16" width="18" height="4" fill="#677A9E"/>
<g opacity="0.5">
<rect x="74" y="17" width="12" height="2" fill="#677A9E"/>
<rect x="92" y="17" width="12" height="2" fill="#677A9E"/>
<rect x="110" y="17" width="12" height="2" fill="#677A9E"/>
<rect x="128" y="17" width="12" height="2" fill="#677A9E"/>
<rect x="146" y="17" width="12" height="2" fill="#677A9E"/>
<rect x="164" y="17" width="12" height="2" fill="#677A9E"/>
</g>
<g opacity="0.5">
<rect x="219" y="17" width="6" height="2" fill="#677A9E"/>
<rect x="231" y="17" width="6" height="2" fill="#677A9E"/>
</g>
</g>
<defs>
<clipPath id="clip0">
<rect width="252" height="150" fill="white"/>
</clipPath>
</defs>
</svg>
