<svg width="60" height="60" viewBox="0 0 60 60" fill="none" xmlns="http://www.w3.org/2000/svg">
<rect opacity="0.6" x="15" y="49" width="30" height="2" fill="#586A74"/>
<rect x="15" y="43" width="15" height="3" fill="#586A74"/>
<circle opacity="0.15" cx="30" cy="24" r="15" fill="#586A74"/>
<path d="M30 15.6666C25.3979 15.6666 21.6666 19.3979 21.6666 24C21.6666 28.602 25.3979 32.3333 30 32.3333C34.602 32.3333 38.3333 28.602 38.3333 24C38.3333 19.3979 34.602 15.6666 30 15.6666ZM33.0041 28.3513L30 26.7444L26.9958 28.3507L27.5951 24.9972L25.1388 22.6368L28.5138 22.1708L30 19.1048L31.4861 22.1708L34.8611 22.6368L32.4048 24.9979L33.0041 28.3513V28.3513Z" fill="#586A74"/>
</svg>
