<svg width="60" height="60" viewBox="0 0 60 60" fill="none" xmlns="http://www.w3.org/2000/svg">
<rect opacity="0.15" x="6" y="18" width="24" height="24" rx="12" fill="#586A74"/>
<path d="M18 23C14.1342 23 11 26.1342 11 30C11 33.8657 14.1342 37 18 37C21.8657 37 25 33.8657 25 30C25 26.1342 21.8657 23 18 23ZM20.5235 33.6552L18 32.3053L15.4765 33.6546L15.9799 30.8377L13.9167 28.8549L16.7517 28.4635L18 25.8881L19.2483 28.4635L22.0833 28.8549L20.0201 30.8382L20.5235 33.6552V33.6552Z" fill="#586A74"/>
<rect opacity="0.6" x="34" y="32" width="20" height="2" fill="#586A74"/>
<rect x="34" y="26" width="12" height="3" fill="#586A74"/>
</svg>
