<svg width="60" height="60" viewBox="0 0 60 60" fill="none" xmlns="http://www.w3.org/2000/svg">
<rect x="34" y="23" width="20" height="3" fill="#586A74"/>
<rect opacity="0.15" x="6" y="12" width="24" height="24" rx="12" fill="#586A74"/>
<path d="M18 17C14.1342 17 11 20.1342 11 24C11 27.8657 14.1342 31 18 31C21.8657 31 25 27.8657 25 24C25 20.1342 21.8657 17 18 17ZM20.5235 27.6552L18 26.3053L15.4765 27.6546L15.9799 24.8377L13.9167 22.8549L16.7517 22.4635L18 19.8881L19.2483 22.4635L22.0833 22.8549L20.0201 24.8382L20.5235 27.6552V27.6552Z" fill="#586A74"/>
<rect opacity="0.6" x="6" y="40" width="48" height="2" fill="#586A74"/>
<rect opacity="0.6" x="6" y="45" width="28" height="2" fill="#586A74"/>
</svg>
