<svg width="60" height="60" viewBox="0 0 60 60" fill="none" xmlns="http://www.w3.org/2000/svg">
<rect opacity="0.2" x="6" y="12" width="48" height="8" rx="2" fill="#586A74"/>
<path d="M8 15C8 14.4477 8.44772 14 9 14H37C37.5523 14 38 14.4477 38 15V17C38 17.5523 37.5523 18 37 18H9C8.44772 18 8 17.5523 8 17V15Z" fill="#586A74"/>
<rect opacity="0.2" x="6" y="40" width="48" height="8" rx="2" fill="#586A74"/>
<path d="M8 43C8 42.4477 8.44772 42 9 42H37C37.5523 42 38 42.4477 38 43V45C38 45.5523 37.5523 46 37 46H9C8.44772 46 8 45.5523 8 45V43Z" fill="#586A74"/>
<rect opacity="0.2" x="6" y="26" width="48" height="8" rx="2" fill="#586A74"/>
<path d="M8 29C8 28.4477 8.44772 28 9 28H22C22.5523 28 23 28.4477 23 29V31C23 31.5523 22.5523 32 22 32H9C8.44772 32 8 31.5523 8 31V29Z" fill="#586A74"/>
</svg>
