<svg width="60" height="60" viewBox="0 0 60 60" fill="none" xmlns="http://www.w3.org/2000/svg">
<path opacity="0.15" d="M6 15C6 13.8954 6.89543 13 8 13H20V19H8C6.89543 19 6 18.1046 6 17V15Z" fill="#586A74"/>
<path d="M6 15C6 13.8954 6.89543 13 8 13H20V19H8C6.89543 19 6 18.1046 6 17V15Z" fill="#586A74"/>
<path opacity="0.15" d="M23 13H37V19H23V13Z" fill="#586A74"/>
<path d="M23 13H37V19H23V13Z" fill="#586A74"/>
<path opacity="0.15" d="M40 13H52C53.1046 13 54 13.8954 54 15V17C54 18.1046 53.1046 19 52 19H40V13Z" fill="#586A74"/>
<path opacity="0.15" d="M6 43C6 41.8954 6.89543 41 8 41H20V47H8C6.89543 47 6 46.1046 6 45V43Z" fill="#586A74"/>
<path d="M6 43C6 41.8954 6.89543 41 8 41H20V47H8C6.89543 47 6 46.1046 6 45V43Z" fill="#586A74"/>
<path opacity="0.15" d="M23 41H37V47H23V41Z" fill="#586A74"/>
<path d="M23 41H37V47H23V41Z" fill="#586A74"/>
<path opacity="0.15" d="M40 41H52C53.1046 41 54 41.8954 54 43V45C54 46.1046 53.1046 47 52 47H40V41Z" fill="#586A74"/>
<path opacity="0.15" d="M6 29C6 27.8954 6.89543 27 8 27H20V33H8C6.89543 33 6 32.1046 6 31V29Z" fill="#586A74"/>
<path d="M6 29C6 27.8954 6.89543 27 8 27H20V33H8C6.89543 33 6 32.1046 6 31V29Z" fill="#586A74"/>
<path opacity="0.15" d="M23 27H37V33H23V27Z" fill="#586A74"/>
<path opacity="0.15" d="M40 27H52C53.1046 27 54 27.8954 54 29V31C54 32.1046 53.1046 33 52 33H40V27Z" fill="#586A74"/>
</svg>
