<svg width="60" height="60" viewBox="0 0 60 60" fill="none" xmlns="http://www.w3.org/2000/svg">
<path d="M6 22C6 19.7909 7.79086 18 10 18H30V42H10C7.79086 42 6 40.2091 6 38V22Z" fill="#586A74"/>
<path d="M16.5 27.3333H15V29.5H16.5V36H19V29.5H20.821L21 27.3333H19V26.4304C19 25.9131 19.096 25.7083 19.5575 25.7083H21V23H19.096C17.298 23 16.5 23.8575 16.5 25.4998V27.3333Z" fill="white"/>
<path opacity="0.2" d="M30 18H50C52.2091 18 54 19.7909 54 22V38C54 40.2091 52.2091 42 50 42H30V18Z" fill="#586A74"/>
<path d="M42 24.2618C43.869 24.2618 44.0907 24.2687 44.8292 24.3026C46.7262 24.3889 47.6122 25.289 47.6986 27.172C47.7324 27.9099 47.7388 28.1316 47.7388 30.0006C47.7388 31.8702 47.7318 32.0912 47.6986 32.8292C47.6117 34.7104 46.7279 35.6122 44.8292 35.6986C44.0907 35.7324 43.8702 35.7394 42 35.7394C40.131 35.7394 39.9093 35.7324 39.1714 35.6986C37.2697 35.6117 36.3883 34.7075 36.302 32.8286C36.2682 32.0907 36.2612 31.8696 36.2612 30C36.2612 28.131 36.2688 27.9099 36.302 27.1714C36.3889 25.289 37.2727 24.3883 39.1714 24.302C39.9099 24.2688 40.131 24.2618 42 24.2618V24.2618ZM42 23C40.0989 23 39.8609 23.0082 39.1142 23.042C36.5721 23.1587 35.1592 24.5692 35.0426 27.1137C35.0082 27.8609 35 28.0989 35 30C35 31.9011 35.0082 32.1397 35.042 32.8863C35.1587 35.4285 36.5692 36.8413 39.1137 36.958C39.8609 36.9918 40.0989 37 42 37C43.9011 37 44.1397 36.9918 44.8863 36.958C47.4262 36.8413 48.8425 35.4308 48.9574 32.8863C48.9918 32.1397 49 31.9011 49 30C49 28.0989 48.9918 27.8609 48.958 27.1142C48.8437 24.5744 47.4314 23.1592 44.8869 23.0426C44.1397 23.0082 43.9011 23 42 23V23ZM42 26.4055C40.0149 26.4055 38.4055 28.0149 38.4055 30C38.4055 31.9851 40.0149 33.5951 42 33.5951C43.9851 33.5951 45.5945 31.9857 45.5945 30C45.5945 28.0149 43.9851 26.4055 42 26.4055ZM42 32.3333C40.7114 32.3333 39.6667 31.2892 39.6667 30C39.6667 28.7114 40.7114 27.6667 42 27.6667C43.2886 27.6667 44.3333 28.7114 44.3333 30C44.3333 31.2892 43.2886 32.3333 42 32.3333ZM45.7368 25.4238C45.2725 25.4238 44.8962 25.8 44.8962 26.2637C44.8962 26.7275 45.2725 27.1037 45.7368 27.1037C46.2006 27.1037 46.5762 26.7275 46.5762 26.2637C46.5762 25.8 46.2006 25.4238 45.7368 25.4238Z" fill="#586A74"/>
</svg>
