<svg width="60" height="60" viewBox="0 0 60 60" fill="none" xmlns="http://www.w3.org/2000/svg">
<path d="M7.5 27H6V29H7.5V35H10V29H11.821L12 27H10V26.1665C10 25.689 10.096 25.5 10.5575 25.5H12V23H10.096C8.298 23 7.5 23.7915 7.5 25.3075V27Z" fill="#586A74"/>
<path d="M15.8671 33H17.3396V28.687H17.3776L19.8286 33H21.5956V26.35H20.1136V30.6915H20.0756L17.6246 26.35H15.8671V33ZM24.9602 33.0855C26.3187 33.0855 27.1072 32.297 27.2402 31.404H25.8247C25.7392 31.632 25.5017 31.898 24.9602 31.898C24.2952 31.898 24.0007 31.4895 23.9912 30.91H27.3067V30.3685C27.3067 29.0195 26.4517 27.946 24.9317 27.946C23.3167 27.946 22.4997 29.1145 22.4997 30.5205C22.4997 31.9455 23.3927 33.0855 24.9602 33.0855ZM24.0007 29.9885C24.0292 29.5135 24.3047 29.143 24.9317 29.143C25.5112 29.143 25.7867 29.5135 25.8152 29.9885H24.0007ZM30.201 33.0855C30.6665 33.0855 31.056 33 31.208 32.943V31.727H31.113C30.961 31.784 30.7995 31.8125 30.638 31.8125C30.201 31.8125 30.0015 31.613 30.0015 31.1475V29.276H31.189V28.0315H30.0015V26.73H29.9065L28.605 26.996V28.0315H27.731V29.276H28.5385V31.499C28.5385 32.4015 29.0515 33.0855 30.201 33.0855ZM32.9433 33H34.8718L35.5843 29.599H35.6223L36.3063 33H38.2348L39.4508 28.1265V28.0315H38.0258L37.2753 31.4325H37.2373L36.5723 28.0315H34.6153L33.9503 31.4325H33.9123L33.1618 28.0315H31.7273V28.1265L32.9433 33ZM42.2629 33.0855C43.8779 33.0855 44.7424 32.0025 44.7424 30.5205C44.7424 29.029 43.8589 27.946 42.2629 27.946C40.6669 27.946 39.7834 29.029 39.7834 30.5205C39.7834 32.012 40.6479 33.0855 42.2629 33.0855ZM42.2629 31.803C41.6644 31.803 41.2749 31.423 41.2749 30.5205C41.2749 29.6275 41.6549 29.2285 42.2629 29.2285C42.8709 29.2285 43.2509 29.618 43.2509 30.5205C43.2509 31.423 42.8709 31.803 42.2629 31.803ZM45.4574 33H46.8254V30.549C46.8254 29.751 47.2719 29.2855 47.9654 29.2855H48.4404V27.946H48.0984C47.4619 27.946 47.0439 28.3165 46.8254 28.7535H46.7874L46.6734 28.0315H45.4574V33ZM51.7908 30.378L53.8048 28.1265V28.0315H52.0948L50.5178 29.8365V25.97H49.1498V33H50.5178V30.967L52.1423 33H53.9093V32.905L51.7908 30.378Z" fill="#586A74"/>
</svg>
