<svg width="60" height="60" viewBox="0 0 60 60" fill="none" xmlns="http://www.w3.org/2000/svg">
<path d="M11.2661 33H12.7386V28.687H12.7766L15.2276 33H16.9946V26.35H15.5126V30.6915H15.4746L13.0236 26.35H11.2661V33ZM20.3591 33.0855C21.7176 33.0855 22.5061 32.297 22.6391 31.404H21.2236C21.1381 31.632 20.9006 31.898 20.3591 31.898C19.6941 31.898 19.3996 31.4895 19.3901 30.91H22.7056V30.3685C22.7056 29.0195 21.8506 27.946 20.3306 27.946C18.7156 27.946 17.8986 29.1145 17.8986 30.5205C17.8986 31.9455 18.7916 33.0855 20.3591 33.0855ZM19.3996 29.9885C19.4281 29.5135 19.7036 29.143 20.3306 29.143C20.9101 29.143 21.1856 29.5135 21.2141 29.9885H19.3996ZM25.5999 33.0855C26.0654 33.0855 26.4549 33 26.6069 32.943V31.727H26.5119C26.3599 31.784 26.1984 31.8125 26.0369 31.8125C25.5999 31.8125 25.4004 31.613 25.4004 31.1475V29.276H26.5879V28.0315H25.4004V26.73H25.3054L24.0039 26.996V28.0315H23.1299V29.276H23.9374V31.499C23.9374 32.4015 24.4504 33.0855 25.5999 33.0855ZM28.3423 33H30.2708L30.9833 29.599H31.0213L31.7053 33H33.6338L34.8498 28.1265V28.0315H33.4248L32.6743 31.4325H32.6363L31.9713 28.0315H30.0143L29.3493 31.4325H29.3113L28.5608 28.0315H27.1263V28.1265L28.3423 33ZM37.6618 33.0855C39.2768 33.0855 40.1413 32.0025 40.1413 30.5205C40.1413 29.029 39.2578 27.946 37.6618 27.946C36.0658 27.946 35.1823 29.029 35.1823 30.5205C35.1823 32.012 36.0468 33.0855 37.6618 33.0855ZM37.6618 31.803C37.0633 31.803 36.6738 31.423 36.6738 30.5205C36.6738 29.6275 37.0538 29.2285 37.6618 29.2285C38.2698 29.2285 38.6498 29.618 38.6498 30.5205C38.6498 31.423 38.2698 31.803 37.6618 31.803ZM40.8563 33H42.2243V30.549C42.2243 29.751 42.6708 29.2855 43.3643 29.2855H43.8393V27.946H43.4973C42.8608 27.946 42.4428 28.3165 42.2243 28.7535H42.1863L42.0723 28.0315H40.8563V33ZM47.1897 30.378L49.2037 28.1265V28.0315H47.4937L45.9167 29.8365V25.97H44.5487V33H45.9167V30.967L47.5412 33H49.3082V32.905L47.1897 30.378Z" fill="#586A74"/>
</svg>
