<?xml version="1.0" encoding="utf-8"?>
<!-- Generator: Adobe Illustrator 21.0.0, SVG Export Plug-In . SVG Version: 6.00 Build 0)  -->
<svg version="1.1" id="Layer_1" xmlns="http://www.w3.org/2000/svg" xmlns:xlink="http://www.w3.org/1999/xlink" x="0px" y="0px"
	 width="60px" height="60px" viewBox="0 0 60 60" style="enable-background:new 0 0 60 60;" xml:space="preserve">
<style>
	.st0{fill:#EBEBEB;}
	.st1{fill:#777777;}
</style>
<circle class="st0" cx="30" cy="30" r="30"/>
<path class="st1" d="M41.8,38.1c-4.6-1.1-8.9-2-6.8-5.9C41.3,20.4,36.6,14,30,14c-6.8,0-11.3,6.6-5,18.2c2.1,3.9-2.3,4.9-6.8,5.9
	C14.3,39,14,41,14,44.3l0,1.7h2.7c0-4.2-0.2-4.7,2.5-5.3c3.8-0.9,7.4-1.7,8.7-4.6c0.5-1.1,0.8-2.8-0.5-5.1c-2.7-5.1-3.4-9.5-1.9-12
	c1.8-3,7.2-3,9,0c1.5,2.5,0.9,7-1.9,12.1c-1.2,2.3-0.9,4-0.4,5.1c1.3,2.9,4.9,3.7,8.8,4.6c2.5,0.6,2.3,1.2,2.3,5.3H46l0-1.7
	C46,41,45.7,39,41.8,38.1z"/>
</svg>
