<svg width="60" height="60" viewBox="0 0 60 60" fill="none" xmlns="http://www.w3.org/2000/svg">
<path opacity="0.15" d="M6 10C6 7.79086 7.79086 6 10 6H50C52.2091 6 54 7.79086 54 10V36H6V10Z" fill="#586A74"/>
<path d="M30 12C24.4775 12 20 16.4775 20 22C20 27.5225 24.4775 32 30 32C35.5225 32 40 27.5225 40 22C40 16.4775 35.5225 12 30 12ZM36.4608 27.2542C36.2433 26.7658 35.8033 26.4283 34.9017 26.22C32.9908 25.7792 31.2117 25.3925 32.0742 23.7658C34.695 18.8142 32.7683 16.1667 30 16.1667C27.1767 16.1667 25.2967 18.9158 27.9258 23.7658C28.8142 25.4025 26.9692 25.7883 25.0983 26.22C24.195 26.4283 23.7583 26.7683 23.5425 27.2583C22.3717 25.8225 21.6667 23.9925 21.6667 22C21.6667 17.405 25.405 13.6667 30 13.6667C34.595 13.6667 38.3333 17.405 38.3333 22C38.3333 23.9908 37.6292 25.8192 36.4608 27.2542Z" fill="#586A74"/>
<path d="M6 36H54V50C54 52.2091 52.2091 54 50 54H10C7.79086 54 6 52.2091 6 50V36Z" fill="white"/>
<rect opacity="0.6" x="15" y="47" width="30" height="2" fill="#586A74"/>
<rect x="21" y="41" width="18" height="3" fill="#586A74"/>
</svg>
