<svg width="60" height="60" viewBox="0 0 60 60" fill="none" xmlns="http://www.w3.org/2000/svg">
<rect opacity="0.15" x="6" y="6" width="48" height="48" rx="4" fill="#586A74"/>
<path d="M30 14C24.4775 14 20 18.4775 20 24C20 29.5225 24.4775 34 30 34C35.5225 34 40 29.5225 40 24C40 18.4775 35.5225 14 30 14ZM36.4608 29.2542C36.2433 28.7658 35.8033 28.4283 34.9017 28.22C32.9908 27.7792 31.2117 27.3925 32.0742 25.7658C34.695 20.8142 32.7683 18.1667 30 18.1667C27.1767 18.1667 25.2967 20.9158 27.9258 25.7658C28.8142 27.4025 26.9692 27.7883 25.0983 28.22C24.195 28.4283 23.7583 28.7683 23.5425 29.2583C22.3717 27.8225 21.6667 25.9925 21.6667 24C21.6667 19.405 25.405 15.6667 30 15.6667C34.595 15.6667 38.3333 19.405 38.3333 24C38.3333 25.9908 37.6292 27.8192 36.4608 29.2542Z" fill="#586A74"/>
<rect opacity="0.6" x="15" y="44" width="30" height="2" fill="#586A74"/>
<rect x="21" y="38" width="18" height="3" fill="#586A74"/>
</svg>
