<svg width="32" height="32" viewBox="0 0 32 32" fill="none" xmlns="http://www.w3.org/2000/svg">
<path d="M32 16C32 24.9137 26.5882 32 16 32C5.36471 32 0 24.9137 0 16C0 7.04179 5.36471 0 16 0C26.5882 0 32 7.04179 32 16Z" fill="#3368A5"/>
<path d="M12 18C13.7 18 15 16.7 15 15C15 13.3 13.7 12 12 12C11.5 12 10.9 12.2 10.5 12.4V11C10.5 10.2 11.2 9.5 12 9.5C12.8 9.5 13.5 10.2 13.5 11H15C15 9.3 13.7 8 12 8C10.3 8 9 9.3 9 11V15C9 16.7 10.3 18 12 18ZM12 13.5C12.8 13.5 13.5 14.2 13.5 15C13.5 15.8 12.8 16.5 12 16.5C11.2 16.5 10.5 15.8 10.5 15C10.5 14.2 11.1 13.5 12 13.5Z" fill="white"/>
<path d="M19.8 18C21.5 18 22.8 16.7 22.8 15C22.8 13.3 21.5 12 19.8 12C19.3 12 18.7 12.2 18.3 12.4V11C18.3 10.2 19 9.5 19.8 9.5C20.6 9.5 21.3 10.2 21.3 11H22.8C22.8 9.3 21.5 8 19.8 8C18.1 8 16.8 9.3 16.8 11V15C16.8 16.7 18.1 18 19.8 18ZM19.8 13.5C20.6 13.5 21.3 14.2 21.3 15C21.3 15.8 20.6 16.5 19.8 16.5C19 16.5 18.3 15.8 18.3 15C18.3 14.2 18.9 13.5 19.8 13.5Z" fill="white"/>
<path d="M22.5 21H9.5C9.22386 21 9 21.2239 9 21.5C9 21.7761 9.22386 22 9.5 22H22.5C22.7761 22 23 21.7761 23 21.5C23 21.2239 22.7761 21 22.5 21Z" fill="white"/>
<path d="M19.5 24H12.5C12.2239 24 12 24.2239 12 24.5C12 24.7761 12.2239 25 12.5 25H19.5C19.7761 25 20 24.7761 20 24.5C20 24.2239 19.7761 24 19.5 24Z" fill="white"/>
</svg>
