<svg width="60" height="60" viewBox="0 0 60 60" fill="none" xmlns="http://www.w3.org/2000/svg">
<rect opacity="0.6" x="44" y="42" width="28" height="2" transform="rotate(180 44 42)" fill="#586A74"/>
<rect x="39" y="48" width="18" height="3" transform="rotate(180 39 48)" fill="#586A74"/>
<circle cx="42" cy="28" r="4.5" stroke="#586A74" stroke-width="3"/>
<path fill-rule="evenodd" clip-rule="evenodd" d="M45 21L48 21C48 17.6863 45.3137 15 42 15C38.6863 15 36 17.6863 36 21C36 21.002 36 21.0041 36 21.0061L36 21L39 21C39 19.3431 40.3431 18 42 18C43.6569 18 45 19.3431 45 21Z" fill="#586A74"/>
<rect x="36" y="21" width="3" height="7" fill="#586A74"/>
<rect opacity="0.15" x="6" y="12" width="24" height="24" rx="12" fill="#586A74"/>
<path d="M18 17C14.1342 17 11 20.1342 11 24C11 27.8657 14.1342 31 18 31C21.8657 31 25 27.8657 25 24C25 20.1342 21.8657 17 18 17ZM20.5235 27.6552L18 26.3053L15.4765 27.6546L15.9799 24.8377L13.9167 22.8549L16.7517 22.4635L18 19.8881L19.2483 22.4635L22.0833 22.8549L20.0201 24.8382L20.5235 27.6552V27.6552Z" fill="#586A74"/>
</svg>
