<svg width="60" height="60" viewBox="0 0 60 60" fill="none" xmlns="http://www.w3.org/2000/svg">
<rect opacity="0.2" x="10" y="10" width="40" height="40" rx="20" fill="#586A74"/>
<path d="M30 20C24.4775 20 20 24.4775 20 30C20 35.5225 24.4775 40 30 40C35.5225 40 40 35.5225 40 30C40 24.4775 35.5225 20 30 20ZM35.0133 29.1667C34.9733 28.3083 34.8733 27.4708 34.7167 26.6667H37.6333C37.975 27.4458 38.2042 28.285 38.2917 29.1667H35.0133V29.1667ZM38.2908 30.8333C38.2033 31.715 37.9742 32.5542 37.6325 33.3333H34.7158C34.8725 32.5292 34.9733 31.6917 35.0125 30.8333H38.2908V30.8333ZM36.6508 25H34.2925C33.98 24.0025 33.5633 23.09 33.075 22.2617C34.505 22.8317 35.7375 23.7875 36.6508 25V25ZM32.5275 25H30.8333V21.9383C31.5342 22.78 32.105 23.8183 32.5275 25ZM30.8333 35H32.5275C32.105 36.1817 31.5342 37.22 30.8333 38.0617V35ZM29.1667 21.9383V25H27.4725C27.895 23.8183 28.4658 22.78 29.1667 21.9383V21.9383ZM29.1667 26.6667V29.1667H26.6717C26.715 28.3 26.8225 27.4633 26.9958 26.6667H29.1667ZM29.1667 30.8333V33.3333H26.9958C26.8225 32.5367 26.7158 31.7 26.6717 30.8333H29.1667ZM29.1667 35V38.0617C28.4658 37.22 27.895 36.1817 27.4725 35H29.1667ZM30.8333 33.3333V30.8333H33.3283C33.285 31.7 33.1775 32.5367 33.0042 33.3333H30.8333ZM30.8333 29.1667V26.6667H33.0042C33.1775 27.4633 33.2842 28.3 33.3283 29.1667H30.8333ZM26.925 22.2617C26.4367 23.09 26.02 24.0025 25.7075 25H23.3492C24.2625 23.7875 25.495 22.8317 26.925 22.2617V22.2617ZM24.9867 29.1667H21.7092C21.7967 28.285 22.0258 27.4458 22.3675 26.6667H25.2842C25.1267 27.4708 25.0267 28.3083 24.9867 29.1667ZM25.2842 33.3333H22.3675C22.0258 32.5542 21.7967 31.715 21.7092 30.8333H24.9875C25.0267 31.6917 25.1267 32.5292 25.2842 33.3333ZM23.3492 35H25.7075C26.02 35.9975 26.4367 36.91 26.925 37.7383C25.495 37.1683 24.2625 36.2125 23.3492 35ZM33.075 37.7383C33.5633 36.91 33.98 35.9975 34.2925 35H36.6508C35.7375 36.2125 34.505 37.1683 33.075 37.7383V37.7383Z" fill="#586A74"/>
</svg>
