<svg width="252" height="150" viewBox="0 0 252 150" fill="none" xmlns="http://www.w3.org/2000/svg">
<path opacity="0.4" d="M0 0H252V150H0V0Z" fill="#677A9E"/>
<path d="M51 85L51 127L47 127L47 85L51 85Z" fill="white"/>
<path d="M49 69L49 79L47 79L47 69L49 69Z" fill="white"/>
<path d="M79 85L79 127L75 127L75 85L79 85Z" fill="white"/>
<path d="M77 69L77 79L75 79L75 69L77 69Z" fill="white"/>
<path d="M107 85L107 127L103 127L103 85L107 85Z" fill="white"/>
<path d="M105 69L105 79L103 79L103 69L105 69Z" fill="white"/>
<path d="M65 67L65 127L61 127L61 67L65 67Z" fill="white"/>
<path d="M63 51L63 61L61 61L61 51L63 51Z" fill="white"/>
<path d="M93 67L93 127L89 127L89 67L93 67Z" fill="white"/>
<path d="M91 51L91 61L89 61L89 51L91 51Z" fill="white"/>
<path d="M121 67L121 127L117 127L117 67L121 67Z" fill="white"/>
<path d="M119 51L119 61L117 61L117 51L119 51Z" fill="white"/>
<path d="M135 85L135 127L131 127L131 85L135 85Z" fill="white"/>
<path d="M133 69L133 79L131 79L131 69L133 69Z" fill="white"/>
<path d="M163 85L163 127L159 127L159 85L163 85Z" fill="white"/>
<path d="M161 69L161 79L159 79L159 69L161 69Z" fill="white"/>
<path d="M191 85L191 127L187 127L187 85L191 85Z" fill="white"/>
<path d="M189 69L189 79L187 79L187 69L189 69Z" fill="white"/>
<path d="M149 67L149 127L145 127L145 67L149 67Z" fill="white"/>
<path d="M147 51L147 61L145 61L145 51L147 51Z" fill="white"/>
<path d="M177 67L177 127L173 127L173 67L177 67Z" fill="white"/>
<path d="M175 51L175 61L173 61L173 51L175 51Z" fill="white"/>
<path d="M205 67L205 127L201 127L201 67L205 67Z" fill="white"/>
<path d="M203 51L203 61L201 61L201 51L203 51Z" fill="white"/>
<rect x="14" y="16.3636" width="18" height="3.27273" fill="white"/>
<rect x="97" y="17" width="12" height="2" fill="white"/>
<rect x="115" y="17" width="12" height="2" fill="white"/>
<rect x="133" y="17" width="12" height="2" fill="white"/>
<rect x="151" y="17" width="12" height="2" fill="white"/>
<rect x="169" y="17" width="12" height="2" fill="white"/>
<rect x="187" y="17" width="12" height="2" fill="white"/>
<rect x="220" y="17.1818" width="6" height="1.63636" fill="white"/>
<rect x="232" y="17.1818" width="6" height="1.63636" fill="white"/>
</svg>
