<svg width="252" height="150" viewBox="0 0 252 150" fill="none" xmlns="http://www.w3.org/2000/svg">
<path opacity="0.4" d="M0 0H252V150H0V0Z" fill="#677A9E"/>
<path d="M92 62H50V66H92V62Z" fill="white"/>
<path d="M108 64H98V66H108V64Z" fill="white"/>
<path d="M160 62H118V66H160V62Z" fill="white"/>
<path d="M176 64H166V66H176V64Z" fill="white"/>
<path d="M110 73H50V77H110V73Z" fill="white"/>
<path d="M126 75H116V77H126V75Z" fill="white"/>
<path d="M196 73H136V77H196V73Z" fill="white"/>
<path d="M212 75H202V77H212V75Z" fill="white"/>
<path d="M92 84H50V88H92V84Z" fill="white"/>
<path d="M108 86H98V88H108V86Z" fill="white"/>
<path d="M160 84H118V88H160V84Z" fill="white"/>
<path d="M176 86H166V88H176V86Z" fill="white"/>
<rect x="14" y="16.3636" width="18" height="3.27273" fill="white"/>
<rect x="97" y="17" width="12" height="2" fill="white"/>
<rect x="115" y="17" width="12" height="2" fill="white"/>
<rect x="133" y="17" width="12" height="2" fill="white"/>
<rect x="151" y="17" width="12" height="2" fill="white"/>
<rect x="169" y="17" width="12" height="2" fill="white"/>
<rect x="187" y="17" width="12" height="2" fill="white"/>
<rect x="220" y="17.1818" width="6" height="1.63636" fill="white"/>
<rect x="232" y="17.1818" width="6" height="1.63636" fill="white"/>
</svg>
