<svg width="252" height="150" viewBox="0 0 252 150" fill="none" xmlns="http://www.w3.org/2000/svg">
<path opacity="0.4" d="M0 0H252V150H0V0Z" fill="#677A9E"/>
<rect opacity="0.25" x="242" width="10" height="50" fill="#677A9E"/>
<rect opacity="0.15" x="242" y="50" width="10" height="50" fill="#677A9E"/>
<rect opacity="0.05" x="242" y="100" width="10" height="50" fill="#677A9E"/>
<rect x="246" y="22" width="2" height="5.88235" fill="white"/>
<rect opacity="0.5" x="246" y="72" width="2" height="5.88235" fill="white"/>
<rect opacity="0.5" x="246" y="122" width="2" height="5.88235" fill="white"/>
<circle opacity="0.3" cx="225" cy="133" r="7" fill="white"/>
<path d="M224 131L226 133L224 135" stroke="white" stroke-width="1.25"/>
<circle opacity="0.3" cx="207" cy="133" r="7" transform="rotate(180 207 133)" fill="white"/>
<path d="M208 135L206 133L208 131" stroke="white" stroke-width="1.25"/>
<path d="M90 59H50V63H90V59Z" fill="white"/>
<path d="M60 86H50V90H60V86Z" fill="white"/>
<path d="M110 69H50V72H110V69Z" fill="white"/>
<path d="M90 75H50V78H90V75Z" fill="white"/>
<rect x="9" y="16.3636" width="18" height="3.27273" fill="white"/>
<rect x="87" y="17" width="12" height="2" fill="white"/>
<rect x="105" y="17" width="12" height="2" fill="white"/>
<rect x="123" y="17" width="12" height="2" fill="white"/>
<rect x="141" y="17" width="12" height="2" fill="white"/>
<rect x="159" y="17" width="12" height="2" fill="white"/>
<rect x="177" y="17" width="12" height="2" fill="white"/>
<rect x="215" y="17.1818" width="6" height="1.63636" fill="white"/>
<rect x="227" y="17.1818" width="6" height="1.63636" fill="white"/>
</svg>
