<svg width="60" height="60" viewBox="0 0 60 60" fill="none" xmlns="http://www.w3.org/2000/svg">
<rect opacity="0.2" x="8" y="8" width="44" height="44" rx="22" stroke="#586A74" stroke-width="4"/>
<path fill-rule="evenodd" clip-rule="evenodd" d="M6 30C6 30 6 30 6 30C6 43.2548 16.7452 54 30 54C43.2548 54 54 43.2548 54 30C54 16.7452 43.2548 6 30 6V10C41.0457 10 50 18.9543 50 30C50 41.0457 41.0457 50 30 50C18.9543 50 10 41.0457 10 30C10 30 10 30 10 30H6Z" fill="#586A74"/>
<circle cx="26" cy="26" r="1.9" stroke="#586A74"/>
<circle cx="34" cy="34" r="1.9" stroke="#586A74"/>
<path d="M24.4 35.6L35.6 24.4" stroke="#586A74" stroke-width="2"/>
</svg>
