<svg width="60" height="60" viewBox="0 0 60 60" fill="none" xmlns="http://www.w3.org/2000/svg">
<path d="M30 18C23.373 18 18 23.373 18 30C18 36.627 23.373 42 30 42C36.627 42 42 36.627 42 30C42 23.373 36.627 18 30 18ZM34.326 36.266L30 33.952L25.674 36.265L26.537 31.436L23 28.037L27.86 27.366L30 22.951L32.14 27.366L37 28.037L33.463 31.437L34.326 36.266V36.266Z" fill="#586A74"/>
<rect opacity="0.2" x="8" y="8" width="44" height="44" rx="22" stroke="#586A74" stroke-width="4"/>
<path fill-rule="evenodd" clip-rule="evenodd" d="M6 30C6 30 6 30 6 30C6 43.2548 16.7452 54 30 54C43.2548 54 54 43.2548 54 30C54 16.7452 43.2548 6 30 6V10C41.0457 10 50 18.9543 50 30C50 41.0457 41.0457 50 30 50C18.9543 50 10 41.0457 10 30C10 30 10 30 10 30H6Z" fill="#586A74"/>
</svg>
