<svg width="60" height="60" viewBox="0 0 60 60" fill="none" xmlns="http://www.w3.org/2000/svg">
<path d="M22 8C16.4775 8 12 12.4775 12 18C12 23.5225 16.4775 28 22 28C27.5225 28 32 23.5225 32 18C32 12.4775 27.5225 8 22 8ZM28.4608 23.2542C28.2433 22.7658 27.8033 22.4283 26.9017 22.22C24.9908 21.7792 23.2117 21.3925 24.0742 19.7658C26.695 14.8142 24.7683 12.1667 22 12.1667C19.1767 12.1667 17.2967 14.9158 19.9258 19.7658C20.8142 21.4025 18.9692 21.7883 17.0983 22.22C16.195 22.4283 15.7583 22.7683 15.5425 23.2583C14.3717 21.8225 13.6667 19.9925 13.6667 18C13.6667 13.405 17.405 9.66667 22 9.66667C26.595 9.66667 30.3333 13.405 30.3333 18C30.3333 19.9908 29.6292 21.8192 28.4608 23.2542Z" fill="#586A74"/>
<rect opacity="0.5" x="48" y="39" width="36" height="2" transform="rotate(180 48 39)" fill="#586A74"/>
<rect opacity="0.5" x="48" y="44" width="36" height="2" transform="rotate(180 48 44)" fill="#586A74"/>
<rect opacity="0.5" x="32" y="34" width="20" height="2" transform="rotate(180 32 34)" fill="#586A74"/>
<rect x="32" y="52" width="20" height="4" transform="rotate(180 32 52)" fill="#586A74"/>
</svg>
