<svg width="60" height="60" viewBox="0 0 60 60" fill="none" xmlns="http://www.w3.org/2000/svg">
<path d="M22 23C16.4775 23 12 27.4775 12 33C12 38.5225 16.4775 43 22 43C27.5225 43 32 38.5225 32 33C32 27.4775 27.5225 23 22 23ZM28.4608 38.2542C28.2433 37.7658 27.8033 37.4283 26.9017 37.22C24.9908 36.7792 23.2117 36.3925 24.0742 34.7658C26.695 29.8142 24.7683 27.1667 22 27.1667C19.1767 27.1667 17.2967 29.9158 19.9258 34.7658C20.8142 36.4025 18.9692 36.7883 17.0983 37.22C16.195 37.4283 15.7583 37.7683 15.5425 38.2583C14.3717 36.8225 13.6667 34.9925 13.6667 33C13.6667 28.405 17.405 24.6667 22 24.6667C26.595 24.6667 30.3333 28.405 30.3333 33C30.3333 34.9908 29.6292 36.8192 28.4608 38.2542Z" fill="#586A74"/>
<rect opacity="0.5" x="48" y="13" width="36" height="2" transform="rotate(180 48 13)" fill="#586A74"/>
<rect opacity="0.5" x="48" y="18" width="36" height="2" transform="rotate(180 48 18)" fill="#586A74"/>
<rect opacity="0.5" x="32" y="8" width="20" height="2" transform="rotate(180 32 8)" fill="#586A74"/>
<rect x="32" y="52" width="20" height="4" transform="rotate(180 32 52)" fill="#586A74"/>
</svg>
