<svg width="60" height="60" viewBox="0 0 60 60" fill="none" xmlns="http://www.w3.org/2000/svg">
<path d="M30 8C24.4775 8 20 12.4775 20 18C20 23.5225 24.4775 28 30 28C35.5225 28 40 23.5225 40 18C40 12.4775 35.5225 8 30 8ZM36.4608 23.2542C36.2433 22.7658 35.8033 22.4283 34.9017 22.22C32.9908 21.7792 31.2117 21.3925 32.0742 19.7658C34.695 14.8142 32.7683 12.1667 30 12.1667C27.1767 12.1667 25.2967 14.9158 27.9258 19.7658C28.8142 21.4025 26.9692 21.7883 25.0983 22.22C24.195 22.4283 23.7583 22.7683 23.5425 23.2583C22.3717 21.8225 21.6667 19.9925 21.6667 18C21.6667 13.405 25.405 9.66667 30 9.66667C34.595 9.66667 38.3333 13.405 38.3333 18C38.3333 19.9908 37.6292 21.8192 36.4608 23.2542Z" fill="#586A74"/>
<rect opacity="0.5" x="48" y="39" width="36" height="2" transform="rotate(180 48 39)" fill="#586A74"/>
<rect opacity="0.5" x="48" y="44" width="36" height="2" transform="rotate(180 48 44)" fill="#586A74"/>
<rect opacity="0.5" x="40" y="34" width="20" height="2" transform="rotate(180 40 34)" fill="#586A74"/>
<rect x="40" y="52" width="20" height="4" transform="rotate(180 40 52)" fill="#586A74"/>
</svg>
