<svg width="60" height="60" viewBox="0 0 60 60" fill="none" xmlns="http://www.w3.org/2000/svg">
<path d="M38 8C32.4775 8 28 12.4775 28 18C28 23.5225 32.4775 28 38 28C43.5225 28 48 23.5225 48 18C48 12.4775 43.5225 8 38 8ZM44.4608 23.2542C44.2433 22.7658 43.8033 22.4283 42.9017 22.22C40.9908 21.7792 39.2117 21.3925 40.0742 19.7658C42.695 14.8142 40.7683 12.1667 38 12.1667C35.1767 12.1667 33.2967 14.9158 35.9258 19.7658C36.8142 21.4025 34.9692 21.7883 33.0983 22.22C32.195 22.4283 31.7583 22.7683 31.5425 23.2583C30.3717 21.8225 29.6667 19.9925 29.6667 18C29.6667 13.405 33.405 9.66667 38 9.66667C42.595 9.66667 46.3333 13.405 46.3333 18C46.3333 19.9908 45.6292 21.8192 44.4608 23.2542Z" fill="#586A74"/>
<rect opacity="0.5" x="48" y="39" width="36" height="2" transform="rotate(180 48 39)" fill="#586A74"/>
<rect opacity="0.5" x="48" y="44" width="36" height="2" transform="rotate(180 48 44)" fill="#586A74"/>
<rect opacity="0.5" x="48" y="34" width="20" height="2" transform="rotate(180 48 34)" fill="#586A74"/>
<rect x="48" y="52" width="20" height="4" transform="rotate(180 48 52)" fill="#586A74"/>
</svg>
