<svg width="60" height="60" viewBox="0 0 60 60" fill="none" xmlns="http://www.w3.org/2000/svg">
<path d="M30 23C24.4775 23 20 27.4775 20 33C20 38.5225 24.4775 43 30 43C35.5225 43 40 38.5225 40 33C40 27.4775 35.5225 23 30 23ZM36.4608 38.2542C36.2433 37.7658 35.8033 37.4283 34.9017 37.22C32.9908 36.7792 31.2117 36.3925 32.0742 34.7658C34.695 29.8142 32.7683 27.1667 30 27.1667C27.1767 27.1667 25.2967 29.9158 27.9258 34.7658C28.8142 36.4025 26.9692 36.7883 25.0983 37.22C24.195 37.4283 23.7583 37.7683 23.5425 38.2583C22.3717 36.8225 21.6667 34.9925 21.6667 33C21.6667 28.405 25.405 24.6667 30 24.6667C34.595 24.6667 38.3333 28.405 38.3333 33C38.3333 34.9908 37.6292 36.8192 36.4608 38.2542Z" fill="#586A74"/>
<rect opacity="0.5" x="48" y="13" width="36" height="2" transform="rotate(180 48 13)" fill="#586A74"/>
<rect opacity="0.5" x="48" y="18" width="36" height="2" transform="rotate(180 48 18)" fill="#586A74"/>
<rect opacity="0.5" x="40" y="8" width="20" height="2" transform="rotate(180 40 8)" fill="#586A74"/>
<rect x="40" y="52" width="20" height="4" transform="rotate(180 40 52)" fill="#586A74"/>
</svg>
