<svg width="60" height="60" viewBox="0 0 60 60" fill="none" xmlns="http://www.w3.org/2000/svg">
<path d="M38 23C32.4775 23 28 27.4775 28 33C28 38.5225 32.4775 43 38 43C43.5225 43 48 38.5225 48 33C48 27.4775 43.5225 23 38 23ZM44.4608 38.2542C44.2433 37.7658 43.8033 37.4283 42.9017 37.22C40.9908 36.7792 39.2117 36.3925 40.0742 34.7658C42.695 29.8142 40.7683 27.1667 38 27.1667C35.1767 27.1667 33.2967 29.9158 35.9258 34.7658C36.8142 36.4025 34.9692 36.7883 33.0983 37.22C32.195 37.4283 31.7583 37.7683 31.5425 38.2583C30.3717 36.8225 29.6667 34.9925 29.6667 33C29.6667 28.405 33.405 24.6667 38 24.6667C42.595 24.6667 46.3333 28.405 46.3333 33C46.3333 34.9908 45.6292 36.8192 44.4608 38.2542Z" fill="#586A74"/>
<rect opacity="0.5" x="48" y="13" width="36" height="2" transform="rotate(180 48 13)" fill="#586A74"/>
<rect opacity="0.5" x="48" y="18" width="36" height="2" transform="rotate(180 48 18)" fill="#586A74"/>
<rect opacity="0.5" x="48" y="8" width="20" height="2" transform="rotate(180 48 8)" fill="#586A74"/>
<rect x="48" y="52" width="20" height="4" transform="rotate(180 48 52)" fill="#586A74"/>
</svg>
