<svg width="32" height="32" viewBox="0 0 32 32" fill="none" xmlns="http://www.w3.org/2000/svg">
<path d="M32 16C32 24.9137 26.5882 32 16 32C5.36471 32 0 24.9137 0 16C0 7.04179 5.36471 0 16 0C26.5882 0 32 7.04179 32 16Z" fill="#677A9E"/>
<path d="M6 8C6 6.89543 6.89543 6 8 6H24C25.1046 6 26 6.89543 26 8V9C26 10.1046 25.1046 11 24 11H8C6.89543 11 6 10.1046 6 9V8Z" fill="white"/>
<path d="M6 15C6 13.8954 6.89543 13 8 13H24C25.1046 13 26 13.8954 26 15V16C26 17.1046 25.1046 18 24 18H8C6.89543 18 6 17.1046 6 16V15Z" fill="white"/>
<path opacity="0.25" d="M6 15H26V24C26 25.1046 25.1046 26 24 26H8C6.89543 26 6 25.1046 6 24V15Z" fill="white"/>
<rect x="22" y="7" width="1" height="3" fill="#677A9E"/>
<rect x="24" y="8" width="1" height="3" transform="rotate(90 24 8)" fill="#677A9E"/>
<rect x="24" y="15" width="1" height="3" transform="rotate(90 24 15)" fill="#677A9E"/>
</svg>
