<svg width="32" height="32" viewBox="0 0 32 32" fill="none" xmlns="http://www.w3.org/2000/svg">
<path d="M32 16C32 24.9137 26.5882 32 16 32C5.36471 32 0 24.9137 0 16C0 7.04179 5.36471 0 16 0C26.5882 0 32 7.04179 32 16Z" fill="#677A9E"/>
<path d="M8 26C6.89543 26 6 25.1046 6 24L6 8C6 6.89543 6.89543 6 8 6L9 6C10.1046 6 11 6.89543 11 8L11 24C11 25.1046 10.1046 26 9 26L8 26Z" fill="white"/>
<path d="M15 26C13.8954 26 13 25.1046 13 24L13 8C13 6.89543 13.8954 6 15 6L16 6C17.1046 6 18 6.89543 18 8L18 24C18 25.1046 17.1046 26 16 26L15 26Z" fill="white"/>
<path opacity="0.25" d="M15 26L15 6L24 6C25.1046 6 26 6.89543 26 8L26 24C26 25.1046 25.1046 26 24 26L15 26Z" fill="white"/>
<rect x="7" y="10" width="1" height="3" transform="rotate(-90 7 10)" fill="#677A9E"/>
<rect x="8" y="8" width="1" height="3" fill="#677A9E"/>
<rect x="15" y="8" width="1" height="3" fill="#677A9E"/>
</svg>
