<svg width="32" height="32" viewBox="0 0 32 32" fill="none" xmlns="http://www.w3.org/2000/svg">
<path d="M32 16C32 24.9137 26.5882 32 16 32C5.36471 32 0 24.9137 0 16C0 7.04179 5.36471 0 16 0C26.5882 0 32 7.04179 32 16Z" fill="#677A9E"/>
<path d="M17.1683 20.4568L14.765 22.8635C13.2517 24.3788 10.7594 24.3788 9.15716 22.8635C8.44506 22.1504 8 21.0808 8 20.1003C8 19.1198 8.44506 18.0501 9.15716 17.337L12.3616 14.1281C13.9638 12.5237 16.4562 12.6128 17.9694 14.1281C18.2364 14.3955 18.5035 14.7521 18.6815 15.1086L17.6134 16.1783C17.5243 15.7326 17.2573 15.376 16.9903 15.1086C16.0111 14.1281 14.4089 14.1281 13.3408 15.1086L10.0473 18.3175C9.06815 19.298 9.06815 20.9916 10.0473 21.9721C11.0264 22.9526 12.7177 22.9526 13.6968 21.9721L15.299 20.3677C16.0111 20.4568 16.5452 20.4568 17.1683 20.4568ZM17.2573 9.13649L14.854 11.5432C15.388 11.5432 15.9221 11.5432 16.6342 11.7214L18.2364 10.117C19.2156 9.13649 20.9068 9.13649 21.886 10.117C22.8651 11.0975 22.8651 12.7911 21.886 13.7716L18.6815 16.9805C17.7024 17.961 16.1001 18.0501 15.032 16.9805C14.6759 16.624 14.4979 16.2674 14.4089 15.9109L14.3199 16L13.3408 16.9805C13.5188 17.337 13.7858 17.6936 14.0529 17.961C15.5661 19.4763 18.0584 19.5655 19.6606 17.961L22.8651 14.7521C24.3783 13.2368 24.3783 10.7409 22.8651 9.13649C21.3519 7.62117 18.7705 7.62117 17.2573 9.13649Z" fill="white"/>
</svg>
