<?xml version="1.0" encoding="utf-8"?>
<!-- Generator: Adobe Illustrator 24.0.1, SVG Export Plug-In . SVG Version: 6.00 Build 0)  -->
<svg version="1.1" id="Layer_1" xmlns="http://www.w3.org/2000/svg" xmlns:xlink="http://www.w3.org/1999/xlink" x="0px" y="0px"
	 viewBox="0 0 32 32" style="enable-background:new 0 0 32 32;" xml:space="preserve">
<style type="text/css">
	.st0{fill:#677A9E;}
	.st1{fill:#FFFFFF;}
</style>
<path class="st0" d="M32,16c0,8.9-5.4,16-16,16C5.4,32,0,24.9,0,16C0,7,5.4,0,16,0C26.6,0,32,7,32,16z"/>
<path class="st1" d="M13.3,7.4c0.5,0,0.9,0.4,0.9,0.8v6c0,0.3,0.2,0.5,0.5,0.5s0.5-0.2,0.5-0.5v-0.5c0-0.4,0.3-0.7,0.7-0.7H16
	c0.3,0.1,0.6,0.4,0.6,0.7v1.1c0,0.3,0.2,0.5,0.5,0.5c0.3,0,0.5-0.2,0.5-0.5v-0.7c0-0.4,0.3-0.7,0.7-0.7h0.1c0.3,0.1,0.6,0.4,0.6,0.7
	v1.3c0,0.3,0.2,0.5,0.5,0.5s0.5-0.2,0.5-0.5v-0.8c0-0.4,0.3-0.6,0.6-0.6c0.1,0,0.2,0,0.3,0.1c0.6,0.3,1,0.8,1,2.1
	c0,1.2-0.4,1.9-1,2.9c-0.7,1.3-1.6,2.8-1.6,5.5H14c-0.6-3.3-3.3-5.4-5.5-7.7c-0.6-0.6-0.3-1.2,0.4-1.2c1.1,0,2.6,1.6,3.5,2.8V8.2
	C12.4,7.8,12.8,7.4,13.3,7.4z M13.3,6C12,6,11,7,11,8.2v6.9c-0.8-0.5-1.5-0.8-2.1-0.8c-0.9,0-1.7,0.5-2,1.2
	c-0.3,0.8-0.1,1.7,0.6,2.4c0.3,0.3,0.6,0.6,1,0.9c1.9,1.9,3.7,3.6,4.2,6l0.2,1.1H14h5.3h1.4v-1.4c0-2.3,0.8-3.7,1.4-4.9
	c0.6-1.1,1.1-2,1.1-3.6c0-1.7-0.6-2.8-1.8-3.4c-0.3-0.1-0.6-0.2-0.9-0.2c-0.2,0-0.5,0-0.7,0.1c-0.3-0.4-0.7-0.6-1.2-0.7
	c-0.1,0-0.3,0-0.4,0c-0.3,0-0.7,0.1-0.9,0.2c-0.3-0.3-0.7-0.5-1.1-0.6c-0.1,0-0.3,0-0.4,0c-0.1,0-0.2,0-0.3,0V8.2
	C15.5,7,14.5,6,13.3,6z"/>
</svg>
