<svg width="32" height="32" viewBox="0 0 32 32" fill="none" xmlns="http://www.w3.org/2000/svg">
<path d="M32 16C32 24.9137 26.5882 32 16 32C5.36471 32 0 24.9137 0 16C0 7.04179 5.36471 0 16 0C26.5882 0 32 7.04179 32 16Z" fill="#677A9E"/>
<rect opacity="0.25" x="6" y="6" width="20" height="20" rx="4" fill="white"/>
<path d="M10 10.1667C10 9.5 10.5217 9 11.2174 9C11.913 9 12.4348 9.5 12.4348 10.1667C12.4348 10.8333 11.913 11.3333 11.2174 11.3333C10.5217 11.3333 10 10.8333 10 10.1667ZM17.3913 10.1667L15.3913 13.1667L13.8261 11.3333L10 16H22L17.3913 10.1667Z" fill="white"/>
<circle cx="21" cy="21" r="1.5" transform="rotate(90 21 21)" stroke="white"/>
<rect x="17" y="20" width="2" height="2" rx="1" transform="rotate(90 17 20)" fill="white"/>
<rect x="13" y="20" width="2" height="2" rx="1" transform="rotate(90 13 20)" fill="white"/>
</svg>
