<svg width="32" height="32" viewBox="0 0 32 32" fill="none" xmlns="http://www.w3.org/2000/svg">
<path d="M32 16C32 24.9137 26.5882 32 16 32C5.36471 32 0 24.9137 0 16C0 7.04179 5.36471 0 16 0C26.5882 0 32 7.04179 32 16Z" fill="#677A9E"/>
<path d="M16 8.5C18.7 8.5 19 8.5 20.1 8.6C23.9 8.8 24.4 10.8 24.5 12.4C24.5 13.3 24.6 13.6 24.6 16C24.6 18.4 24.6 18.7 24.5 19.6C24.4 21.2 23.9 23.3 20.1 23.4C19.1 23.4 18.7 23.5 16 23.5C13.3 23.5 13 23.5 11.9 23.4C8.1 23.2 7.6 21.1 7.5 19.6C7.5 18.7 7.4 18.4 7.4 16C7.4 13.6 7.4 13.3 7.5 12.4C7.6 10.8 8.1 8.7 11.9 8.6C13 8.5 13.3 8.5 16 8.5ZM16 7C13.3 7 12.9 7 11.9 7.1C8.3 7.2 6.3 9.1 6.1 12.3C6 13.2 6 13.6 6 16C6 18.4 6 18.8 6.1 19.7C6.3 23 8.3 24.8 11.9 24.9C13 24.9 13.3 25 16 25C18.7 25 19.1 25 20.1 24.9C23.7 24.8 25.8 22.9 25.9 19.7C25.9 18.7 26 18.4 26 16C26 13.6 26 13.2 25.9 12.3C25.7 9 23.7 7.2 20.1 7.1C19.1 7 18.7 7 16 7Z" fill="white"/>
<path d="M7 12L16 18L25 12" stroke="white" stroke-width="1.5" stroke-miterlimit="10"/>
</svg>
