<svg width="32" height="32" viewBox="0 0 32 32" fill="none" xmlns="http://www.w3.org/2000/svg">
<path d="M32 16C32 24.9137 26.5882 32 16 32C5.36471 32 0 24.9137 0 16C0 7.04179 5.36471 0 16 0C26.5882 0 32 7.04179 32 16Z" fill="#677A9E"/>
<rect opacity="0.25" x="6" y="6" width="20" height="20" rx="4" fill="white"/>
<path opacity="0.15" d="M6 16H26V22C26 24.2091 24.2091 26 22 26H10C7.79086 26 6 24.2091 6 22V16Z" fill="white"/>
<path d="M12.8 21C14.5 21 15.8 19.7 15.8 18C15.8 16.3 14.5 15 12.8 15C12.3 15 11.7 15.2 11.3 15.4V14C11.3 13.2 12 12.5 12.8 12.5C13.6 12.5 14.3 13.2 14.3 14H15.8C15.8 12.3 14.5 11 12.8 11C11.1 11 9.79999 12.3 9.79999 14V18C9.79999 19.7 11.1 21 12.8 21ZM12.8 16.5C13.6 16.5 14.3 17.2 14.3 18C14.3 18.8 13.6 19.5 12.8 19.5C12 19.5 11.3 18.8 11.3 18C11.3 17.2 11.9 16.5 12.8 16.5Z" fill="white"/>
<path d="M19.8 11C18.1 11 16.8 12.3 16.8 14C16.8 15.7 18.1 17 19.8 17C20.3 17 20.9 16.8 21.3 16.6V18C21.3 18.8 20.6 19.5 19.8 19.5C19 19.5 18.3 18.8 18.3 18H16.8C16.8 19.7 18.1 21 19.8 21C21.5 21 22.8 19.7 22.8 18V14C22.8 12.3 21.4 11 19.8 11ZM19.8 15.5C19 15.5 18.3 14.8 18.3 14C18.3 13.2 19 12.5 19.8 12.5C20.6 12.5 21.3 13.2 21.3 14C21.3 14.8 20.6 15.5 19.8 15.5Z" fill="white"/>
</svg>
