<svg width="32" height="32" viewBox="0 0 32 32" fill="none" xmlns="http://www.w3.org/2000/svg">
<path d="M32 16C32 24.9137 26.5882 32 16 32C5.36471 32 0 24.9137 0 16C0 7.04179 5.36471 0 16 0C26.5882 0 32 7.04179 32 16Z" fill="#677A9E"/>
<path d="M24 22.5V9.5C24 9.22386 23.7761 9 23.5 9C23.2239 9 23 9.22386 23 9.5V22.5C23 22.7761 23.2239 23 23.5 23C23.7761 23 24 22.7761 24 22.5Z" fill="white"/>
<path d="M20 9H8V12.5H9.16418C9.16418 11.8 9.43284 10.75 10.3284 10.75H12.7463V20.55C12.7463 21.25 12.209 21.775 11.5821 21.775H10.9552V23H16.9552V21.8625H16.3284C15.6119 21.8625 15.1642 21.3375 15.1642 20.6375V10.75H17.5821C18.5672 10.75 18.7463 11.8 18.7463 12.5H19.9104V9H20Z" fill="white"/>
</svg>
