<svg width="32" height="32" viewBox="0 0 32 32" fill="none" xmlns="http://www.w3.org/2000/svg">
<path d="M32 16C32 24.9137 26.5882 32 16 32C5.36471 32 0 24.9137 0 16C0 7.04179 5.36471 0 16 0C26.5882 0 32 7.04179 32 16Z" fill="#677A9E"/>
<rect opacity="0.25" x="6" y="6" width="20" height="20" rx="10" fill="white"/>
<mask id="mask0" mask-type="alpha" maskUnits="userSpaceOnUse" x="6" y="6" width="20" height="20">
<rect x="6" y="6" width="20" height="20" rx="10" fill="white"/>
</mask>
<g mask="url(#mask0)">
<path d="M9 13C9 11.8571 9.86957 11 11.029 11C12.1884 11 13.058 11.8571 13.058 13C13.058 14.1429 12.1884 15 11.029 15C9.86957 15 9 14.1429 9 13ZM21.3188 13L17.9855 18.1429L15.3768 15L9 23H29L21.3188 13Z" fill="white"/>
<rect x="9" y="23" width="17" height="3" fill="white"/>
</g>
</svg>
