<svg width="32" height="32" viewBox="0 0 32 32" fill="none" xmlns="http://www.w3.org/2000/svg">
<path d="M32 16C32 24.9137 26.5882 32 16 32C5.36471 32 0 24.9137 0 16C0 7.04179 5.36471 0 16 0C26.5882 0 32 7.04179 32 16Z" fill="#677A9E"/>
<rect opacity="0.25" x="6" y="10" width="20" height="12" rx="4" fill="white"/>
<path d="M19 13H10C9.44772 13 9 13.4477 9 14C9 14.5523 9.44771 15 10 15H19C19.5523 15 20 14.5523 20 14C20 13.4477 19.5523 13 19 13Z" fill="white"/>
<path d="M22.5 18H9.5C9.22386 18 9 18.2239 9 18.5C9 18.7761 9.22386 19 9.5 19H22.5C22.7761 19 23 18.7761 23 18.5C23 18.2239 22.7761 18 22.5 18Z" fill="white"/>
</svg>
