<svg width="32" height="32" viewBox="0 0 32 32" fill="none" xmlns="http://www.w3.org/2000/svg">
<path d="M32 16C32 24.9137 26.5882 32 16 32C5.36471 32 0 24.9137 0 16C0 7.04179 5.36471 0 16 0C26.5882 0 32 7.04179 32 16Z" fill="#677A9E"/>
<rect opacity="0.25" x="9" y="6" width="14" height="14" rx="7" fill="white"/>
<path d="M22.5 22H9.5C9.22386 22 9 22.2239 9 22.5C9 22.7761 9.22386 23 9.5 23H22.5C22.7761 23 23 22.7761 23 22.5C23 22.2239 22.7761 22 22.5 22Z" fill="white"/>
<path d="M19.5 25H12.5C12.2239 25 12 25.2239 12 25.5C12 25.7761 12.2239 26 12.5 26H19.5C19.7761 26 20 25.7761 20 25.5C20 25.2239 19.7761 25 19.5 25Z" fill="white"/>
<circle cx="16" cy="13" r="3" stroke="white" stroke-width="1.5"/>
</svg>
