<svg width="32" height="32" viewBox="0 0 32 32" fill="none" xmlns="http://www.w3.org/2000/svg">
<path d="M32 16C32 24.9137 26.5882 32 16 32C5.36471 32 0 24.9137 0 16C0 7.04179 5.36471 0 16 0C26.5882 0 32 7.04179 32 16Z" fill="#677A9E"/>
<path d="M16 7.5C18.7 7.5 19 7.5 20.1 7.6C23 7.7 24.4 9.1 24.5 12C24.5 13 24.6 13.4 24.6 16.1C24.6 18.8 24.6 19.1 24.5 20.2C24.4 23.1 23 24.5 20.1 24.6C19.1 24.6 18.7 24.7 16 24.7C13.3 24.7 13 24.7 11.9 24.6C9 24.5 7.6 23.1 7.5 20.2C7.5 19.2 7.4 18.8 7.4 16.1C7.4 13.4 7.4 13.1 7.5 12C7.6 9.1 9 7.7 11.9 7.6C13 7.5 13.3 7.5 16 7.5ZM16 6C13.3 6 12.9 6 11.9 6.1C8.3 6.3 6.3 8.3 6.1 11.9C6 12.9 6 13.3 6 16C6 18.7 6 19.1 6.1 20.1C6.3 23.7 8.3 25.8 11.9 25.9C13 25.9 13.3 26 16 26C18.7 26 19.1 26 20.1 25.9C23.7 25.7 25.8 23.7 25.9 20.1C25.9 19 26 18.7 26 16C26 13.3 26 12.9 25.9 11.9C25.7 8.3 23.7 6.3 20.1 6.1C19.1 6 18.7 6 16 6Z" fill="white"/>
<path d="M16 12.4C18 12.4 19.6 14 19.6 16C19.6 18 18 19.6 16 19.6C14 19.6 12.4 18 12.4 16C12.4 14 14 12.4 16 12.4ZM16 10.9C13.2 10.9 10.9 13.2 10.9 16C10.9 18.8 13.2 21.1 16 21.1C18.8 21.1 21.1 18.8 21.1 16C21.1 13.2 18.8 10.9 16 10.9Z" fill="white"/>
<path d="M21.3 11.9C21.9627 11.9 22.5 11.3627 22.5 10.7C22.5 10.0373 21.9627 9.5 21.3 9.5C20.6372 9.5 20.1 10.0373 20.1 10.7C20.1 11.3627 20.6372 11.9 21.3 11.9Z" fill="white"/>
</svg>
