<svg width="32" height="32" viewBox="0 0 32 32" fill="none" xmlns="http://www.w3.org/2000/svg">
<path d="M32 16C32 24.9137 26.5882 32 16 32C5.36471 32 0 24.9137 0 16C0 7.04179 5.36471 0 16 0C26.5882 0 32 7.04179 32 16Z" fill="#677A9E"/>
<path opacity="0.25" d="M7 12C7 9.79086 8.79086 8 11 8H21C23.2091 8 25 9.79086 25 12V18C25 20.2091 23.2091 22 21 22H7V12Z" fill="white"/>
<path d="M16 14C15.4 14 15 14.4 15 15C15 15.6 15.4 16 16 16C16.6 16 17 15.6 17 15C17 14.4 16.6 14 16 14Z" fill="white"/>
<path d="M12 14C11.4 14 11 14.4 11 15C11 15.6 11.4 16 12 16C12.6 16 13 15.6 13 15C13 14.4 12.6 14 12 14Z" fill="white"/>
<path d="M20 14C19.4 14 19 14.4 19 15C19 15.6 19.4 16 20 16C20.6 16 21 15.6 21 15C21 14.4 20.6 14 20 14Z" fill="white"/>
<path opacity="0.25" d="M7 26V22H11L7 26Z" fill="white"/>
</svg>
