<svg width="32" height="32" viewBox="0 0 32 32" fill="none" xmlns="http://www.w3.org/2000/svg">
<path d="M32 16C32 24.9137 26.5882 32 16 32C5.36471 32 0 24.9137 0 16C0 7.04179 5.36471 0 16 0C26.5882 0 32 7.04179 32 16Z" fill="#677A9E"/>
<g opacity="0.7">
<path opacity="0.7" d="M23 6H9C7.34315 6 6 7.34315 6 9V17C6 18.6569 7.34315 20 9 20H23C24.6569 20 26 18.6569 26 17V9C26 7.34315 24.6569 6 23 6Z" fill="white"/>
</g>
<g opacity="0.7">
<path opacity="0.7" d="M21 9H11C9.34315 9 8 10.3431 8 12V20C8 21.6569 9.34315 23 11 23H21C22.6569 23 24 21.6569 24 20V12C24 10.3431 22.6569 9 21 9Z" fill="white"/>
</g>
<g opacity="0.7">
<path opacity="0.7" d="M19 12H13C11.3431 12 10 13.3431 10 15V23C10 24.6569 11.3431 26 13 26H19C20.6569 26 22 24.6569 22 23V15C22 13.3431 20.6569 12 19 12Z" fill="white"/>
</g>
</svg>
