<?xml version="1.0" encoding="utf-8"?>
<!-- Generator: Adobe Illustrator 24.0.1, SVG Export Plug-In . SVG Version: 6.00 Build 0)  -->
<svg version="1.1" id="Layer_1" xmlns="http://www.w3.org/2000/svg" xmlns:xlink="http://www.w3.org/1999/xlink" x="0px" y="0px"
	 viewBox="0 0 32 32" style="enable-background:new 0 0 32 32;" xml:space="preserve">
<style type="text/css">
	.st0{fill:#677A9E;}
	.st1{fill:#FFFFFF;}
</style>
<path class="st0" d="M32,16c0,8.9-5.4,16-16,16C5.4,32,0,24.9,0,16C0,7,5.4,0,16,0C26.6,0,32,7,32,16z"/>
<path class="st1" d="M11.1,10h-3c-0.6,0-1,0.4-1,1s0.4,1,1,1h3c0.6,0,1-0.4,1-1S11.7,10,11.1,10z"/>
<path class="st1" d="M24.1,10h-3c-0.6,0-1,0.4-1,1s0.4,1,1,1h3c0.6,0,1-0.4,1-1S24.7,10,24.1,10z"/>
<path class="st1" d="M14.1,11.5c0,0.3,0.2,0.5,0.5,0.5s0.5-0.2,0.5-0.5S14.9,11,14.6,11S14.1,11.2,14.1,11.5z"/>
<path class="st1" d="M17.1,11.5c0,0.3,0.2,0.5,0.5,0.5s0.5-0.2,0.5-0.5S17.9,11,17.6,11S17.1,11.2,17.1,11.5z"/>
<path class="st1" d="M11.1,15h-3c-0.6,0-1,0.4-1,1c0,0.6,0.4,1,1,1h3c0.6,0,1-0.4,1-1C12.1,15.4,11.7,15,11.1,15z"/>
<path class="st1" d="M24.1,15h-3c-0.6,0-1,0.4-1,1c0,0.6,0.4,1,1,1h3c0.6,0,1-0.4,1-1C25.1,15.4,24.7,15,24.1,15z"/>
<path class="st1" d="M14.1,16.5c0,0.3,0.2,0.5,0.5,0.5s0.5-0.2,0.5-0.5S14.9,16,14.6,16S14.1,16.2,14.1,16.5z"/>
<path class="st1" d="M17.1,16.5c0,0.3,0.2,0.5,0.5,0.5s0.5-0.2,0.5-0.5S17.9,16,17.6,16S17.1,16.2,17.1,16.5z"/>
<path class="st1" d="M11.1,20h-3c-0.6,0-1,0.4-1,1s0.4,1,1,1h3c0.6,0,1-0.4,1-1S11.7,20,11.1,20z"/>
<path class="st1" d="M24.1,20h-3c-0.6,0-1,0.4-1,1s0.4,1,1,1h3c0.6,0,1-0.4,1-1S24.7,20,24.1,20z"/>
<path class="st1" d="M14.1,21.5c0,0.3,0.2,0.5,0.5,0.5s0.5-0.2,0.5-0.5S14.9,21,14.6,21S14.1,21.2,14.1,21.5z"/>
<path class="st1" d="M17.1,21.5c0,0.3,0.2,0.5,0.5,0.5s0.5-0.2,0.5-0.5S17.9,21,17.6,21S17.1,21.2,17.1,21.5z"/>
</svg>
