<svg width="32" height="32" viewBox="0 0 32 32" fill="none" xmlns="http://www.w3.org/2000/svg">
<path d="M32 16C32 24.9137 26.5882 32 16 32C5.36471 32 0 24.9137 0 16C0 7.04179 5.36471 0 16 0C26.5882 0 32 7.04179 32 16Z" fill="#677A9E"/>
<rect opacity="0.25" x="8" y="6" width="16" height="20" rx="3" fill="white"/>
<path d="M19.5 15H12.5C12.2239 15 12 15.2239 12 15.5C12 15.7761 12.2239 16 12.5 16H19.5C19.7761 16 20 15.7761 20 15.5C20 15.2239 19.7761 15 19.5 15Z" fill="white"/>
<path d="M19.5 12H12.5C12.2239 12 12 12.2239 12 12.5C12 12.7761 12.2239 13 12.5 13H19.5C19.7761 13 20 12.7761 20 12.5C20 12.2239 19.7761 12 19.5 12Z" fill="white"/>
<path d="M17.5 9H14.5C14.2239 9 14 9.22386 14 9.5C14 9.77614 14.2239 10 14.5 10H17.5C17.7761 10 18 9.77614 18 9.5C18 9.22386 17.7761 9 17.5 9Z" fill="white"/>
<path d="M19.5 18H12.5C12.2239 18 12 18.2239 12 18.5C12 18.7761 12.2239 19 12.5 19H19.5C19.7761 19 20 18.7761 20 18.5C20 18.2239 19.7761 18 19.5 18Z" fill="white"/>
<path d="M17.5 21H14.5C14.2239 21 14 21.2239 14 21.5C14 21.7761 14.2239 22 14.5 22H17.5C17.7761 22 18 21.7761 18 21.5C18 21.2239 17.7761 21 17.5 21Z" fill="white"/>
</svg>
