<svg width="32" height="32" viewBox="0 0 32 32" fill="none" xmlns="http://www.w3.org/2000/svg">
<path d="M32 16C32 24.9137 26.5882 32 16 32C5.36471 32 0 24.9137 0 16C0 7.04179 5.36471 0 16 0C26.5882 0 32 7.04179 32 16Z" fill="#677A9E"/>
<path d="M9 20C10.5621 18.4379 11.4379 17.5621 13 16M13 16L9 12M13 16H12.5" stroke="white" stroke-width="1.3"/>
<path d="M14 20C15.5621 18.4379 16.4379 17.5621 18 16M18 16L14 12M18 16H17.5" stroke="white" stroke-width="1.3"/>
<path d="M19 20C20.5621 18.4379 21.4379 17.5621 23 16M23 16L19 12M23 16H22.5" stroke="white" stroke-width="1.3"/>
</svg>
