<svg width="32" height="32" viewBox="0 0 32 32" fill="none" xmlns="http://www.w3.org/2000/svg">
<path d="M32 16C32 24.9137 26.5882 32 16 32C5.36471 32 0 24.9137 0 16C0 7.04179 5.36471 0 16 0C26.5882 0 32 7.04179 32 16Z" fill="#677A9E"/>
<rect opacity="0.25" x="6" y="9" width="21" height="5" rx="2" fill="white"/>
<path d="M6 11C6 9.89543 6.89543 9 8 9H13V14H8C6.89543 14 6 13.1046 6 12V11Z" fill="white"/>
<rect opacity="0.25" x="6" y="18" width="21" height="5" rx="2" fill="white"/>
<path d="M6 20C6 18.8954 6.89543 18 8 18H20V23H8C6.89543 23 6 22.1046 6 21V20Z" fill="white"/>
</svg>
