<svg width="32" height="32" viewBox="0 0 32 32" fill="none" xmlns="http://www.w3.org/2000/svg">
<path d="M32 16C32 24.9137 26.5882 32 16 32C5.36471 32 0 24.9137 0 16C0 7.04179 5.36471 0 16 0C26.5882 0 32 7.04179 32 16Z" fill="#677A9E"/>
<rect opacity="0.25" x="8" y="6" width="16" height="20" rx="3" fill="white"/>
<path opacity="0.25" d="M8 9C8 7.34315 9.34315 6 11 6H21C22.6569 6 24 7.34315 24 9V13H8V9Z" fill="white"/>
<path d="M19.5 16H12.5C12.2239 16 12 16.2239 12 16.5C12 16.7761 12.2239 17 12.5 17H19.5C19.7761 17 20 16.7761 20 16.5C20 16.2239 19.7761 16 19.5 16Z" fill="white"/>
<path d="M19.5 9H12.5C12.2239 9 12 9.22386 12 9.5C12 9.77614 12.2239 10 12.5 10H19.5C19.7761 10 20 9.77614 20 9.5C20 9.22386 19.7761 9 19.5 9Z" fill="white"/>
<path d="M19.5 19H12.5C12.2239 19 12 19.2239 12 19.5C12 19.7761 12.2239 20 12.5 20H19.5C19.7761 20 20 19.7761 20 19.5C20 19.2239 19.7761 19 19.5 19Z" fill="white"/>
<path d="M17.5 22H14.5C14.2239 22 14 22.2239 14 22.5C14 22.7761 14.2239 23 14.5 23H17.5C17.7761 23 18 22.7761 18 22.5C18 22.2239 17.7761 22 17.5 22Z" fill="white"/>
</svg>
