<svg width="32" height="32" viewBox="0 0 32 32" fill="none" xmlns="http://www.w3.org/2000/svg">
<path d="M32 16C32 24.9137 26.5882 32 16 32C5.36471 32 0 24.9137 0 16C0 7.04179 5.36471 0 16 0C26.5882 0 32 7.04179 32 16Z" fill="#677A9E"/>
<path opacity="0.25" d="M17 0H15V32H17V0Z" fill="white"/>
<path d="M27.5 17H21.5C21.2239 17 21 17.2239 21 17.5C21 17.7761 21.2239 18 21.5 18H27.5C27.7761 18 28 17.7761 28 17.5C28 17.2239 27.7761 17 27.5 17Z" fill="white"/>
<path d="M27.5 14H21.5C21.2239 14 21 14.2239 21 14.5C21 14.7761 21.2239 15 21.5 15H27.5C27.7761 15 28 14.7761 28 14.5C28 14.2239 27.7761 14 27.5 14Z" fill="white"/>
<path d="M24.5 11H21.5C21.2239 11 21 11.2239 21 11.5C21 11.7761 21.2239 12 21.5 12H24.5C24.7761 12 25 11.7761 25 11.5C25 11.2239 24.7761 11 24.5 11Z" fill="white"/>
<path d="M24.5 20H21.5C21.2239 20 21 20.2239 21 20.5C21 20.7761 21.2239 21 21.5 21H24.5C24.7761 21 25 20.7761 25 20.5C25 20.2239 24.7761 20 24.5 20Z" fill="white"/>
<path d="M4.5 15L10.5 15C10.7761 15 11 14.7761 11 14.5C11 14.2239 10.7761 14 10.5 14L4.5 14C4.22386 14 4 14.2239 4 14.5C4 14.7761 4.22386 15 4.5 15Z" fill="white"/>
<path d="M4.5 18L10.5 18C10.7761 18 11 17.7761 11 17.5C11 17.2239 10.7761 17 10.5 17L4.5 17C4.22386 17 4 17.2239 4 17.5C4 17.7761 4.22386 18 4.5 18Z" fill="white"/>
<path d="M7.5 21L10.5 21C10.7761 21 11 20.7761 11 20.5C11 20.2239 10.7761 20 10.5 20L7.5 20C7.22386 20 7 20.2239 7 20.5C7 20.7761 7.22386 21 7.5 21Z" fill="white"/>
<path d="M7.5 12L10.5 12C10.7761 12 11 11.7761 11 11.5C11 11.2239 10.7761 11 10.5 11L7.5 11C7.22386 11 7 11.2239 7 11.5C7 11.7761 7.22386 12 7.5 12Z" fill="white"/>
</svg>
