<svg width="32" height="32" viewBox="0 0 32 32" fill="none" xmlns="http://www.w3.org/2000/svg">
<path d="M32 16C32 24.9137 26.5882 32 16 32C5.36471 32 0 24.9137 0 16C0 7.04179 5.36471 0 16 0C26.5882 0 32 7.04179 32 16Z" fill="#677A9E"/>
<path opacity="0.25" d="M6 12H26V21C26 23.2091 24.2091 25 22 25H10C7.79086 25 6 23.2091 6 21V12Z" fill="white"/>
<path d="M22.5 15H9.5C9.22386 15 9 15.2239 9 15.5C9 15.7761 9.22386 16 9.5 16H22.5C22.7761 16 23 15.7761 23 15.5C23 15.2239 22.7761 15 22.5 15Z" fill="white"/>
<path d="M22.5 18H9.5C9.22386 18 9 18.2239 9 18.5C9 18.7761 9.22386 19 9.5 19H22.5C22.7761 19 23 18.7761 23 18.5C23 18.2239 22.7761 18 22.5 18Z" fill="white"/>
<path d="M15.5 21H9.5C9.22386 21 9 21.2239 9 21.5C9 21.7761 9.22386 22 9.5 22H15.5C15.7761 22 16 21.7761 16 21.5C16 21.2239 15.7761 21 15.5 21Z" fill="white"/>
<path opacity="0.25" d="M6 8C6 7.44772 6.44772 7 7 7H14C14.5523 7 15 7.44772 15 8V12H6V8Z" fill="white"/>
<path d="M17 8C17 7.44772 17.4477 7 18 7H25C25.5523 7 26 7.44772 26 8V12H17V8Z" fill="white"/>
</svg>
