<svg width="32" height="32" viewBox="0 0 32 32" fill="none" xmlns="http://www.w3.org/2000/svg">
<path d="M32 16C32 24.9137 26.5882 32 16 32C5.36471 32 0 24.9137 0 16C0 7.04179 5.36471 0 16 0C26.5882 0 32 7.04179 32 16Z" fill="#677A9E"/>
<path d="M22.5 22H9.5C9.22386 22 9 22.2239 9 22.5C9 22.7761 9.22386 23 9.5 23H22.5C22.7761 23 23 22.7761 23 22.5C23 22.2239 22.7761 22 22.5 22Z" fill="white"/>
<path d="M19.5 25H12.5C12.2239 25 12 25.2239 12 25.5C12 25.7761 12.2239 26 12.5 26H19.5C19.7761 26 20 25.7761 20 25.5C20 25.2239 19.7761 25 19.5 25Z" fill="white"/>
<path d="M21.1 15.7C19.9 15.4 18.5 15.2 18.2 14.5C18.1 14.2 18.1 13.9 18.3 13.6C19.7 11.1 19.9 8.9 19 7.5C18.4 6.5 17.3 6 16 6C14.7 6 13.6 6.5 13 7.5C12.1 8.9 12.4 11 13.8 13.5C14 13.9 14.1 14.2 14 14.5C13.7 15.1 12.5 15.3 11.2 15.6H11C9.1 16 9 16.8 9 18.2V19.1H10.4V18.6C10.4 17.2 10.4 17.1 11.3 16.9C12.9 16.6 14.5 16.2 15.2 15C15.4 14.5 15.5 13.8 15 12.9C13.9 11 13.6 9.2 14.2 8.2C14.5 7.7 15.2 7.4 16 7.4C16.8 7.4 17.5 7.7 17.8 8.2C18.4 9.2 18.2 10.8 17 12.9C16.5 13.8 16.6 14.5 16.8 15C17.4 16.2 19.1 16.6 20.7 16.9C21.6 17.1 21.6 17.2 21.6 18.6V19.1H23V18.3C23 16.9 22.9 16 21.1 15.7Z" fill="white"/>
</svg>
