<svg width="32" height="32" viewBox="0 0 32 32" fill="none" xmlns="http://www.w3.org/2000/svg">
<path d="M32 16C32 24.9137 26.5882 32 16 32C5.36471 32 0 24.9137 0 16C0 7.04179 5.36471 0 16 0C26.5882 0 32 7.04179 32 16Z" fill="#677A9E"/>
<path d="M24.5 22H7.5C7.22386 22 7 22.2239 7 22.5C7 22.7761 7.22386 23 7.5 23H24.5C24.7761 23 25 22.7761 25 22.5C25 22.2239 24.7761 22 24.5 22Z" fill="white"/>
<path d="M19.5 25H12.5C12.2239 25 12 25.2239 12 25.5C12 25.7761 12.2239 26 12.5 26H19.5C19.7761 26 20 25.7761 20 25.5C20 25.2239 19.7761 25 19.5 25Z" fill="white"/>
<path d="M17.1 15.7C15.9 15.4 14.5 15.2 14.2 14.5C14.1 14.2 14.1 13.9 14.3 13.6C15.7 11.1 15.9 8.9 15 7.5C14.4 6.5 13.3 6 12 6C10.7 6 9.6 6.5 9 7.5C8.1 8.9 8.4 11 9.8 13.5C10 13.9 10.1 14.2 10 14.5C9.7 15.1 8.5 15.3 7.2 15.6H7C5.1 16 5 16.8 5 18.2V19.1H6.4V18.6C6.4 17.2 6.4 17.1 7.3 16.9C8.9 16.6 10.5 16.2 11.2 15C11.4 14.5 11.5 13.8 11 12.9C9.9 11 9.6 9.2 10.2 8.2C10.5 7.7 11.2 7.4 12 7.4C12.8 7.4 13.5 7.7 13.8 8.2C14.4 9.2 14.2 10.8 13 12.9C12.5 13.8 12.6 14.5 12.8 15C13.4 16.2 15.1 16.6 16.7 16.9C17.6 17.1 17.6 17.2 17.6 18.6V19.1H19V18.3C19 16.9 18.9 16 17.1 15.7Z" fill="white"/>
<path d="M24.4 15.7C23.2 15.4 21.8 15.2 21.5 14.5C21.4 14.2 21.4 13.9 21.6 13.6C23 11.1 23.2 8.9 22.3 7.5C21.7 6.5 20.6 6 19.3 6C18.4 6 17.7 6.2 17.1 6.7L17.8 7.9C18.2 7.6 18.7 7.4 19.3 7.4C20.1 7.4 20.8 7.7 21.1 8.2C21.7 9.2 21.5 10.8 20.3 12.9C19.8 13.8 19.9 14.5 20.1 15C20.7 16.2 22.4 16.6 24 16.9C24.9 17.1 24.9 17.2 24.9 18.6V19.1H26.3V18.3C26.3 16.9 26.2 16 24.4 15.7Z" fill="white"/>
</svg>
