<svg width="32" height="32" viewBox="0 0 32 32" fill="none" xmlns="http://www.w3.org/2000/svg">
<path d="M32 16C32 24.9137 26.5882 32 16 32C5.36471 32 0 24.9137 0 16C0 7.04179 5.36471 0 16 0C26.5882 0 32 7.04179 32 16Z" fill="#677A9E"/>
<rect opacity="0.25" x="6" y="6" width="20" height="20" rx="10" fill="white"/>
<path d="M15.7 13V15.5C15.7 17.4 14.3 18.7 12.4 19L12 18.3C12.9 18 13.5 17.1 13.5 16.4H12V13H15.7Z" fill="white"/>
<path d="M20 13V15.5C20 17.4 18.6 18.7 16.7 19L16.4 18.3C17.3 18 17.9 17.1 17.9 16.4H16.4V13H20Z" fill="white"/>
</svg>
