<svg width="32" height="32" viewBox="0 0 32 32" fill="none" xmlns="http://www.w3.org/2000/svg">
<path d="M32 16C32 24.9137 26.5882 32 16 32C5.36471 32 0 24.9137 0 16C0 7.04179 5.36471 0 16 0C26.5882 0 32 7.04179 32 16Z" fill="#677A9E"/>
<path d="M22 9H10V12.5H11.1642C11.1642 11.8 11.4328 10.75 12.3284 10.75H14.7463V20.55C14.7463 21.25 14.209 21.775 13.5821 21.775H12.9552V23H18.9552V21.8625H18.3284C17.6119 21.8625 17.1642 21.3375 17.1642 20.6375V10.75H19.5821C20.5672 10.75 20.7463 11.8 20.7463 12.5H21.9104V9H22Z" fill="white"/>
</svg>
