<svg width="32" height="32" viewBox="0 0 32 32" fill="none" xmlns="http://www.w3.org/2000/svg">
<path d="M32 16C32 24.9137 26.5882 32 16 32C5.36471 32 0 24.9137 0 16C0 7.04179 5.36471 0 16 0C26.5882 0 32 7.04179 32 16Z" fill="#677A9E"/>
<rect opacity="0.25" x="6" y="26" width="20" height="20" rx="4" transform="rotate(-90 6 26)" fill="white"/>
<path d="M15.5 15H9.5C9.22386 15 9 15.2239 9 15.5C9 15.7761 9.22386 16 9.5 16H15.5C15.7761 16 16 15.7761 16 15.5C16 15.2239 15.7761 15 15.5 15Z" fill="white"/>
<path d="M15.5 12H9.5C9.22386 12 9 12.2239 9 12.5C9 12.7761 9.22386 13 9.5 13H15.5C15.7761 13 16 12.7761 16 12.5C16 12.2239 15.7761 12 15.5 12Z" fill="white"/>
<path d="M12.5 18H9.5C9.22386 18 9 18.2239 9 18.5C9 18.7761 9.22386 19 9.5 19H12.5C12.7761 19 13 18.7761 13 18.5C13 18.2239 12.7761 18 12.5 18Z" fill="white"/>
<circle cx="21" cy="11" r="1.5" stroke="white"/>
<rect x="20" y="15" width="2" height="2" rx="1" fill="white"/>
<rect x="20" y="19" width="2" height="2" rx="1" fill="white"/>
</svg>
